<svg width="51" height="52" viewBox="0 0 51 52" fill="none" xmlns="http://www.w3.org/2000/svg">
<path fill-rule="evenodd" clip-rule="evenodd" d="M24.4056 0.326426C24.7298 0.113572 25.1105 0 25.5 0C25.8895 0 26.2702 0.113572 26.5944 0.326426L50.1178 15.7895C51.7425 16.8575 50.9753 19.3549 49.0206 19.3549H1.97938C0.0247292 19.3549 -0.742462 16.8575 0.882179 15.7895L24.4056 0.326426ZM25.5 2.94625L4.77173 16.5738H46.2311L25.5 2.94625ZM42.4233 40.2134C42.0493 40.2134 41.6906 40.0669 41.4261 39.8061C41.1616 39.5453 41.0131 39.1916 41.0131 38.8228V23.5266C41.0131 23.1578 41.1616 22.8041 41.4261 22.5433C41.6906 22.2826 42.0493 22.136 42.4233 22.136C42.7974 22.136 43.1561 22.2826 43.4206 22.5433C43.685 22.8041 43.8336 23.1578 43.8336 23.5266V38.8228C43.8336 39.1916 43.685 39.5453 43.4206 39.8061C43.1561 40.0669 42.7974 40.2134 42.4233 40.2134ZM31.1411 40.2134C30.7671 40.2134 30.4084 40.0669 30.1439 39.8061C29.8794 39.5453 29.7308 39.1916 29.7308 38.8228V23.5266C29.7308 23.1578 29.8794 22.8041 30.1439 22.5433C30.4084 22.2826 30.7671 22.136 31.1411 22.136C31.5151 22.136 31.8739 22.2826 32.1383 22.5433C32.4028 22.8041 32.5514 23.1578 32.5514 23.5266V38.8228C32.5514 39.1916 32.4028 39.5453 32.1383 39.8061C31.8739 40.0669 31.5151 40.2134 31.1411 40.2134ZM19.8589 40.2134C19.4849 40.2134 19.1261 40.0669 18.8617 39.8061C18.5972 39.5453 18.4486 39.1916 18.4486 38.8228V23.5266C18.4486 23.1578 18.5972 22.8041 18.8617 22.5433C19.1261 22.2826 19.4849 22.136 19.8589 22.136C20.2329 22.136 20.5916 22.2826 20.8561 22.5433C21.1206 22.8041 21.2692 23.1578 21.2692 23.5266V38.8228C21.2692 39.1916 21.1206 39.5453 20.8561 39.8061C20.5916 40.0669 20.2329 40.2134 19.8589 40.2134ZM8.57666 40.2134C8.20263 40.2134 7.84392 40.0669 7.57944 39.8061C7.31496 39.5453 7.16638 39.1916 7.16638 38.8228V23.5266C7.16638 23.1578 7.31496 22.8041 7.57944 22.5433C7.84392 22.2826 8.20263 22.136 8.57666 22.136C8.95069 22.136 9.3094 22.2826 9.57387 22.5433C9.83835 22.8041 9.98694 23.1578 9.98694 23.5266V38.8228C9.98694 39.1916 9.83835 39.5453 9.57387 39.8061C9.3094 40.0669 8.95069 40.2134 8.57666 40.2134ZM1.52527 47.1662C1.52527 46.0598 1.97101 44.9987 2.76445 44.2164C3.55788 43.434 4.63401 42.9945 5.7561 42.9945H45.2439C46.366 42.9945 47.4421 43.434 48.2355 44.2164C49.029 44.9987 49.4747 46.0598 49.4747 47.1662C49.4747 48.2726 49.029 49.3337 48.2355 50.1161C47.4421 50.8984 46.366 51.3379 45.2439 51.3379H5.7561C4.63401 51.3379 3.55788 50.8984 2.76445 50.1161C1.97101 49.3337 1.52527 48.2726 1.52527 47.1662ZM5.7561 45.7757C5.38207 45.7757 5.02336 45.9222 4.75888 46.1829C4.49441 46.4437 4.34582 46.7974 4.34582 47.1662C4.34582 47.535 4.49441 47.8887 4.75888 48.1495C5.02336 48.4103 5.38207 48.5568 5.7561 48.5568H45.2439C45.6179 48.5568 45.9766 48.4103 46.2411 48.1495C46.5056 47.8887 46.6542 47.535 46.6542 47.1662C46.6542 46.7974 46.5056 46.4437 46.2411 46.1829C45.9766 45.9222 45.6179 45.7757 45.2439 45.7757H5.7561Z" fill="#3C3C3D"/>
</svg>
