<svg width="45" height="38" viewBox="0 0 45 38" fill="none" xmlns="http://www.w3.org/2000/svg">
<path d="M8.97305 18.9946C8.23361 18.9946 7.51077 19.1937 6.89595 19.5666C6.28113 19.9395 5.80193 20.4695 5.51896 21.0897C5.23599 21.7098 5.16195 22.3922 5.30621 23.0505C5.45046 23.7089 5.80654 24.3136 6.3294 24.7882C6.85227 25.2629 7.51843 25.5861 8.24367 25.717C8.9689 25.848 9.72062 25.7808 10.4038 25.5239C11.0869 25.267 11.6708 24.832 12.0816 24.2739C12.4925 23.7158 12.7117 23.0597 12.7117 22.3884C12.7105 21.4887 12.3163 20.6261 11.6154 19.9898C10.9145 19.3536 9.96424 18.9957 8.97305 18.9946ZM8.97305 24.4247C8.52938 24.4247 8.09568 24.3053 7.72679 24.0815C7.35789 23.8578 7.07038 23.5398 6.90059 23.1677C6.73081 22.7956 6.68639 22.3862 6.77294 21.9912C6.8595 21.5962 7.07314 21.2333 7.38686 20.9486C7.70058 20.6638 8.10028 20.4698 8.53542 20.3913C8.97056 20.3127 9.42159 20.353 9.83149 20.5071C10.2414 20.6613 10.5917 20.9223 10.8382 21.2571C11.0847 21.592 11.2163 21.9857 11.2163 22.3884C11.2157 22.9283 10.9791 23.4459 10.5586 23.8277C10.138 24.2095 9.5678 24.4242 8.97305 24.4247ZM15.7027 26.461C14.9632 26.461 14.2404 26.6601 13.6256 27.033C13.0107 27.4059 12.5316 27.9359 12.2486 28.5561C11.9656 29.1762 11.8916 29.8586 12.0358 30.5169C12.1801 31.1753 12.5362 31.78 13.059 32.2546C13.5819 32.7293 14.2481 33.0525 14.9733 33.1834C15.6985 33.3144 16.4502 33.2472 17.1334 32.9903C17.8166 32.7334 18.4005 32.2984 18.8113 31.7403C19.2221 31.1822 19.4413 30.5261 19.4413 29.8548C19.4402 28.9551 19.0459 28.0925 18.345 27.4562C17.6441 26.82 16.6939 26.4621 15.7027 26.461ZM15.7027 31.8911C15.259 31.8911 14.8253 31.7717 14.4564 31.5479C14.0875 31.3242 13.8 31.0062 13.6302 30.6341C13.4604 30.262 13.416 29.8526 13.5026 29.4576C13.5891 29.0626 13.8028 28.6997 14.1165 28.415C14.4302 28.1302 14.8299 27.9362 15.265 27.8577C15.7002 27.7791 16.1512 27.8194 16.5611 27.9735C16.971 28.1277 17.3213 28.3887 17.5678 28.7235C17.8143 29.0584 17.9459 29.4521 17.9459 29.8548C17.9453 30.3947 17.7088 30.9123 17.2882 31.2941C16.8676 31.6759 16.2974 31.8906 15.7027 31.8911ZM11.2163 16.2796C11.9557 16.2796 12.6785 16.0805 13.2934 15.7076C13.9082 15.3347 14.3874 14.8046 14.6703 14.1845C14.9533 13.5644 15.0274 12.882 14.8831 12.2236C14.7388 11.5653 14.3828 10.9606 13.8599 10.4859C13.337 10.0113 12.6709 9.68808 11.9456 9.55712C11.2204 9.42617 10.4687 9.49338 9.78552 9.75025C9.10237 10.0071 8.51847 10.4421 8.10766 11.0002C7.69685 11.5583 7.47758 12.2145 7.47758 12.8857C7.47876 13.7855 7.87304 14.6481 8.57392 15.2843C9.2748 15.9206 10.2251 16.2785 11.2163 16.2796ZM11.2163 10.8494C11.6599 10.8494 12.0936 10.9689 12.4625 11.1926C12.8314 11.4164 13.1189 11.7344 13.2887 12.1065C13.4585 12.4786 13.5029 12.888 13.4164 13.283C13.3298 13.678 13.1162 14.0408 12.8024 14.3256C12.4887 14.6104 12.089 14.8043 11.6539 14.8829C11.2187 14.9615 10.7677 14.9211 10.3578 14.767C9.94792 14.6129 9.59758 14.3519 9.3511 14.017C9.10461 13.6822 8.97305 13.2885 8.97305 12.8857C8.97364 12.3458 9.21017 11.8282 9.63072 11.4465C10.0513 11.0647 10.6215 10.85 11.2163 10.8494ZM20.9368 11.5282C21.6763 11.5282 22.3991 11.3292 23.0139 10.9562C23.6287 10.5833 24.1079 10.0533 24.3909 9.43314C24.6739 8.813 24.7479 8.13062 24.6037 7.47228C24.4594 6.81395 24.1033 6.20923 23.5805 5.73459C23.0576 5.25996 22.3914 4.93673 21.6662 4.80578C20.941 4.67482 20.1892 4.74203 19.5061 4.9989C18.8229 5.25577 18.239 5.69077 17.8282 6.24888C17.4174 6.80699 17.1981 7.46315 17.1981 8.13439C17.1993 9.03415 17.5936 9.89676 18.2945 10.533C18.9954 11.1692 19.9456 11.5271 20.9368 11.5282ZM20.9368 6.09809C21.3805 6.09809 21.8142 6.21752 22.1831 6.44127C22.552 6.66502 22.8395 6.98305 23.0093 7.35513C23.1791 7.72721 23.2235 8.13664 23.1369 8.53165C23.0504 8.92665 22.8367 9.28948 22.523 9.57426C22.2093 9.85904 21.8096 10.053 21.3744 10.1315C20.9393 10.2101 20.4883 10.1698 20.0784 10.0157C19.6685 9.86155 19.3181 9.60055 19.0717 9.26569C18.8252 8.93082 18.6936 8.53713 18.6936 8.13439C18.6942 7.59449 18.9307 7.07687 19.3513 6.6951C19.7718 6.31334 20.3421 6.09863 20.9368 6.09809ZM44.3881 0.421589C42.4701 -1.31944 36.7514 2.70427 33.2431 5.69762C30.7644 3.78976 27.8149 2.45331 24.6453 1.80186C21.4757 1.15041 18.1797 1.20321 15.0375 1.95579C11.8952 2.70836 8.9995 4.13845 6.5965 6.12453C4.19351 8.1106 2.35424 10.5939 1.235 13.3635C0.115772 16.1331 -0.250336 19.107 0.167794 22.0325C0.585925 24.958 1.77593 27.7487 3.63669 30.1673C5.49744 32.5859 7.97393 34.5609 10.8557 35.9246C13.7374 37.2883 16.9393 38.0002 20.1891 38C22.3216 38 23.9951 37.3355 24.7847 36.1768C25.2804 35.4492 25.6505 34.1792 24.597 32.2665C24.2228 31.6474 24.0235 30.9539 24.0167 30.2479C24.0099 29.5418 24.1959 28.8452 24.5581 28.2204C25.341 27.0692 26.9337 26.461 29.1619 26.461C34.7079 26.461 40.378 25.6546 40.378 19.6734C40.3737 16.6756 39.5596 13.7246 38.0069 11.0789C41.3291 7.97691 46.4189 2.26647 44.3881 0.421589ZM43.3315 1.38068C43.7996 1.83885 42.0447 5.50078 36.5129 10.5216C35.1684 11.7464 33.743 12.8958 32.2448 13.9636C31.5338 12.95 30.5866 12.0902 29.47 11.4447C30.6462 10.0847 31.9125 8.79085 33.2618 7.57033C38.7928 2.54951 42.8275 0.957813 43.3315 1.38068ZM27.0122 14.846C27.466 14.0396 27.9883 13.2664 28.5742 12.5335C29.5796 13.0959 30.4259 13.8641 31.0455 14.7768C30.238 15.3086 29.3863 15.7827 28.4979 16.1947C28.1265 15.6453 27.6175 15.1832 27.0122 14.846ZM27.6664 18.3158C27.6664 19.9211 25.824 21.7097 23.18 21.7097C21.5659 21.7732 19.9846 21.283 18.7504 20.3365C20.3327 20.0257 21.0452 18.8113 21.6442 17.7905C22.4413 16.433 23.0133 15.6008 24.6755 15.6008C25.4685 15.6015 26.2288 15.8878 26.7895 16.3968C27.3503 16.9058 27.6657 17.596 27.6664 18.3158ZM29.1619 25.1035C25.6573 25.1035 24.0324 26.4101 23.2862 27.5063C22.7843 28.3265 22.5187 29.2484 22.5138 30.1866C22.509 31.1248 22.7651 32.0489 23.2585 32.8733C23.8575 33.9593 23.9427 34.8315 23.5128 35.4641C23.0088 36.2013 21.7668 36.6425 20.1891 36.6425C17.1837 36.6471 14.2214 35.9939 11.5533 34.7382C8.88522 33.4825 6.58998 31.6613 4.86216 29.4291C3.13435 27.1968 2.0249 24.6194 1.62787 21.9151C1.23085 19.2109 1.55794 16.4596 2.58143 13.8945C3.60492 11.3294 5.29463 9.02617 7.50732 7.17999C9.72001 5.3338 12.3904 3.99912 15.2923 3.28909C18.1941 2.57905 21.2417 2.5146 24.1768 3.10118C27.1118 3.68777 29.8479 4.90811 32.1529 6.65875C29.1245 9.41453 26.7467 12.2226 25.6236 14.3369C25.3122 14.2752 24.9943 14.2438 24.6755 14.2433C22.0308 14.2433 21.0849 15.856 20.3252 17.1518C19.5079 18.5446 19.0032 19.2573 17.3208 19.0041C17.1848 18.9836 17.0452 18.9975 16.9174 19.0445C16.7896 19.0915 16.6785 19.1696 16.5966 19.2702C16.5147 19.3709 16.465 19.4902 16.453 19.6149C16.4411 19.7395 16.4673 19.8648 16.5289 19.9768C16.5985 20.103 18.2876 23.0672 23.18 23.0672C26.7579 23.0672 29.1619 20.6101 29.1619 18.3158C29.1613 18.0264 29.1267 17.7379 29.0587 17.4552C31.947 16.0199 34.5873 14.2073 36.895 12.0753C38.1993 14.4333 38.8798 17.0349 38.8825 19.6734C38.8825 23.581 36.157 25.1035 29.1619 25.1035Z" fill="black"/>
</svg>
