<svg width="43" height="51" viewBox="0 0 43 51" fill="none" xmlns="http://www.w3.org/2000/svg">
<path fill-rule="evenodd" clip-rule="evenodd" d="M41.9833 10.4981H32.1239C31.7695 10.4981 31.5117 10.2292 31.5117 9.90058V0.608842C31.5117 0.369826 31.6406 0.13081 31.8984 0.0411792C32.1239 -0.0484517 32.4139 0.0113023 32.6072 0.190564L42.4344 9.4823C42.6277 9.66157 42.6599 9.90058 42.5633 10.1396C42.4666 10.3487 42.2411 10.4981 41.9833 10.4981ZM32.7683 9.30304H40.4367L32.7683 2.07281V9.30304Z" fill="#3C3C3D"/>
<path fill-rule="evenodd" clip-rule="evenodd" d="M1.99766 50.9515C0.902167 50.9515 0 50.1149 0 49.0991V1.83373C0 0.817909 0.902167 0.0112305 1.99766 0.0112305H32.1236C32.5103 0.0112305 32.768 0.280123 32.768 0.60877V9.30297H41.983C42.3374 9.30297 42.6274 9.57186 42.6274 9.90051V49.0991C42.6274 50.1149 41.7252 50.9515 40.6298 50.9515H1.99766ZM1.99766 1.20631C1.61101 1.20631 1.28881 1.4752 1.28881 1.83373V49.0991C1.28881 49.4576 1.61101 49.7564 1.99766 49.7564H40.6298C41.0164 49.7564 41.3386 49.4576 41.3386 49.0991V10.498H32.1236C31.7692 10.498 31.4792 10.2292 31.4792 9.90051V1.20631H1.99766Z" fill="#3C3C3D"/>
<path fill-rule="evenodd" clip-rule="evenodd" d="M26.4206 5.98658H5.83188C5.47745 5.98658 5.18747 5.71769 5.18747 5.38904C5.18747 5.0604 5.47745 4.7915 5.83188 4.7915H26.4206C26.7751 4.7915 27.065 5.0604 27.065 5.38904C27.065 5.71769 26.7751 5.98658 26.4206 5.98658ZM26.4206 8.556H5.83188C5.47745 8.556 5.18747 8.28711 5.18747 7.95846C5.18747 7.62982 5.47745 7.36092 5.83188 7.36092H26.4206C26.7751 7.36092 27.065 7.62982 27.065 7.95846C27.065 8.28711 26.7751 8.556 26.4206 8.556ZM38.181 17.1904H16.8834C16.529 17.1904 16.239 16.9216 16.239 16.5929C16.239 16.2643 16.529 15.9954 16.8834 15.9954H38.181C38.5354 15.9954 38.8254 16.2643 38.8254 16.5929C38.8254 16.9216 38.5354 17.1904 38.181 17.1904ZM38.181 20.6263H16.8834C16.529 20.6263 16.239 20.3574 16.239 20.0288C16.239 19.7001 16.529 19.4312 16.8834 19.4312H38.181C38.5354 19.4312 38.8254 19.7001 38.8254 20.0288C38.8254 20.3574 38.5354 20.6263 38.181 20.6263ZM6.76626 21.0745C6.57294 21.0745 6.41184 21.0147 6.31518 20.8952L3.9631 18.7441C3.73756 18.505 3.73756 18.1465 3.9631 17.9075C4.22086 17.6685 4.63973 17.6685 4.89749 17.9075L6.76626 19.6404L10.9549 15.7265C11.2127 15.4875 11.6315 15.4875 11.8893 15.7265C12.147 15.9655 12.147 16.324 11.8893 16.563L7.21735 20.8952C7.08847 21.0147 6.92737 21.0745 6.76626 21.0745ZM38.181 28.9919H16.8834C16.529 28.9919 16.239 28.723 16.239 28.3943C16.239 28.0657 16.529 27.7968 16.8834 27.7968H38.181C38.5354 27.7968 38.8254 28.0657 38.8254 28.3943C38.8254 28.723 38.5354 28.9919 38.181 28.9919ZM38.181 32.4576H16.8834C16.529 32.4576 16.239 32.1887 16.239 31.86C16.239 31.5314 16.529 31.2625 16.8834 31.2625H38.181C38.5354 31.2625 38.8254 31.5314 38.8254 31.86C38.8254 32.1887 38.5354 32.4576 38.181 32.4576ZM6.76626 32.8759C6.57294 32.8759 6.41184 32.8161 6.31518 32.7265L3.9631 30.5753C3.73756 30.3363 3.73756 29.9479 3.9631 29.7089C4.22086 29.4699 4.63973 29.4699 4.89749 29.7089L6.76626 31.4418L10.9549 27.5279C11.2127 27.3187 11.6315 27.3187 11.8893 27.5279C12.147 27.7669 12.147 28.1553 11.8893 28.3943L7.21735 32.7265C7.08847 32.8161 6.92737 32.8759 6.76626 32.8759ZM38.181 40.8231H16.8834C16.529 40.8231 16.239 40.5542 16.239 40.2256C16.239 39.897 16.529 39.6281 16.8834 39.6281H38.181C38.5354 39.6281 38.8254 39.897 38.8254 40.2256C38.8254 40.5542 38.5354 40.8231 38.181 40.8231ZM38.181 44.259H16.8834C16.529 44.259 16.239 43.9901 16.239 43.6614C16.239 43.3328 16.529 43.0639 16.8834 43.0639H38.181C38.5354 43.0639 38.8254 43.3328 38.8254 43.6614C38.8254 43.9901 38.5354 44.259 38.181 44.259ZM6.76626 44.7071C6.60516 44.7071 6.41184 44.6474 6.31518 44.5279L3.9631 42.3767C3.73756 42.1377 3.73756 41.7792 3.9631 41.5402C4.22086 41.3012 4.63973 41.3012 4.89749 41.5402L6.76626 43.2731L10.9549 39.3592C11.2127 39.1202 11.6315 39.1202 11.8893 39.3592C12.147 39.5982 12.147 39.9567 11.8893 40.1957L7.21735 44.5279C7.08847 44.6474 6.92737 44.7071 6.76626 44.7071Z" fill="#3C3C3D"/>
</svg>
