<svg width="51" height="53" viewBox="0 0 51 53" fill="none" xmlns="http://www.w3.org/2000/svg">
<g clip-path="url(#clip0_51_785)">
<path d="M8.01782 18.1231L0.547089 10.6561C0.373353 10.4827 0.235519 10.2768 0.141475 10.0502C0.0474307 9.8235 -0.000976563 9.58052 -0.000976562 9.33512C-0.000976563 9.08973 0.0474307 8.84675 0.141475 8.62008C0.235519 8.39341 0.373353 8.1875 0.547089 8.01415L8.01782 0.547166C8.36826 0.196821 8.84357 0 9.33918 0C9.83479 0 10.3101 0.196821 10.6605 0.547166C11.011 0.89751 11.2079 1.37268 11.2079 1.86814C11.2079 2.3636 11.011 2.83877 10.6605 3.18912L4.50963 9.33512L10.6605 15.4827C10.9896 15.8373 11.1684 16.3056 11.1594 16.7892C11.1503 17.2728 10.9541 17.7341 10.612 18.0761C10.2699 18.4181 9.80845 18.6143 9.32469 18.6233C8.84094 18.6324 8.37251 18.4536 8.01782 18.1246V18.1231ZM17.3539 18.1231C17.5274 18.2966 17.7334 18.4342 17.9601 18.5281C18.1869 18.622 18.4299 18.6703 18.6753 18.6703C18.9207 18.6703 19.1637 18.622 19.3904 18.5281C19.6171 18.4342 19.8231 18.2966 19.9966 18.1231L27.4658 10.6561C27.6397 10.4829 27.7777 10.277 27.8719 10.0503C27.9661 9.82361 28.0145 9.58058 28.0145 9.33512C28.0145 9.08967 27.9661 8.84664 27.8719 8.61995C27.7777 8.39327 27.6397 8.1874 27.4658 8.01415L19.9966 0.547166C19.6419 0.218178 19.1735 0.0394309 18.6898 0.0484822C18.206 0.0575335 17.7446 0.253679 17.4025 0.595704C17.0603 0.93773 16.8641 1.39901 16.8551 1.88262C16.846 2.36623 17.0248 2.83453 17.3539 3.18912L23.5048 9.33512L17.3539 15.4827C17.0042 15.8334 16.8078 16.3084 16.8078 16.8037C16.8078 17.2989 17.0042 17.7739 17.3539 18.1246V18.1231ZM41.0828 3.7345H35.4836C34.9883 3.7345 34.5132 3.93122 34.163 4.28137C33.8127 4.63153 33.616 5.10644 33.616 5.60163C33.616 6.09683 33.8127 6.57174 34.163 6.9219C34.5132 7.27205 34.9883 7.46877 35.4836 7.46877H41.0844V41.0725H7.47073V26.137C7.47073 25.642 7.27403 25.1673 6.92392 24.8173C6.57381 24.4673 6.09895 24.2706 5.60382 24.2706C5.10868 24.2706 4.63383 24.4673 4.28371 24.8173C3.9336 25.1673 3.73691 25.642 3.73691 26.137V41.071C3.73691 42.0611 4.13024 43.0107 4.83042 43.7109C5.53061 44.4112 6.48031 44.8048 7.47073 44.8052H41.0844C42.0748 44.8048 43.0245 44.4112 43.7247 43.7109C44.4248 43.0107 44.8182 42.0611 44.8182 41.071V7.46722C44.8178 6.4771 44.424 5.52767 43.7236 4.8277C43.0231 4.12772 42.0732 3.7345 41.0828 3.7345Z" fill="black"/>
</g>
<defs>
<clipPath id="clip0_51_785">
<rect width="51" height="52.53" fill="white"/>
</clipPath>
</defs>
</svg>
