<svg width="48" height="48" viewBox="0 0 48 48" fill="none" xmlns="http://www.w3.org/2000/svg">
<g clip-path="url(#clip0_4_2759)">
<g clip-path="url(#clip1_4_2759)">
<g clip-path="url(#clip2_4_2759)">
<path d="M27.667 43.5028H19.879C19.6492 43.5028 19.4295 43.5813 19.267 43.7225C19.189 43.7873 19.126 43.8682 19.0822 43.9597C19.0383 44.0511 19.0148 44.151 19.0132 44.2524C19.0132 44.4518 19.1046 44.6419 19.267 44.7832C19.4295 44.9235 19.6492 45.0028 19.879 45.0028H27.667C27.8969 45.0028 28.1166 44.9235 28.279 44.7832C28.3572 44.7183 28.4203 44.6372 28.4641 44.5456C28.5079 44.454 28.5314 44.3539 28.5329 44.2524C28.5313 44.151 28.5078 44.0511 28.4639 43.9597C28.4201 43.8682 28.357 43.7873 28.279 43.7225C28.1078 43.5787 27.8907 43.5008 27.667 43.5028ZM25.9363 46.5028H21.6098C21.38 46.5028 21.1603 46.5813 20.9978 46.7225C20.9198 46.7873 20.8567 46.8682 20.8129 46.9597C20.7691 47.0511 20.7456 47.151 20.744 47.2524C20.744 47.4518 20.8354 47.6419 20.9978 47.7832C21.1603 47.9235 21.38 48.0028 21.6098 48.0028H25.9363C26.1661 48.0028 26.3858 47.9235 26.5483 47.7832C26.6264 47.7183 26.6895 47.6372 26.7334 47.5456C26.7772 47.454 26.8006 47.3539 26.8021 47.2524C26.8005 47.151 26.777 47.0511 26.7332 46.9597C26.6894 46.8682 26.6263 46.7873 26.5483 46.7225C26.377 46.5787 26.1599 46.5008 25.9363 46.5028ZM36.0809 25.0441C36.0107 25.2333 35.9341 25.4225 35.852 25.6127C35.0027 27.3951 33.9604 29.0791 32.744 30.6342L32.6304 30.7912C31.2098 32.7425 29.6009 34.9542 29.2077 37.5019C29.0582 38.3905 28.9749 39.289 28.9584 40.1899C28.9594 40.2887 28.9298 40.5028 28.7738 40.5028H24.6384V35.065C24.6369 34.9635 24.6135 34.8634 24.5697 34.7718C24.5258 34.6802 24.4627 34.5991 24.3846 34.5342C24.2132 34.3906 23.9962 34.313 23.7726 34.3155C23.5437 34.3155 23.323 34.3939 23.1606 34.5352C23.0827 34.6 23.0198 34.681 22.9762 34.7724C22.9325 34.8639 22.9092 34.9637 22.9077 35.065V40.5019H18.7723C18.6135 40.5019 18.5867 40.2887 18.5867 40.1899C18.5704 39.2872 18.4871 38.3868 18.3375 37.4964C17.9452 34.9533 16.3354 32.7425 14.9147 30.7902L14.8021 30.6352C13.5863 29.0807 12.5444 27.3977 11.695 25.6164C11.612 25.4253 11.5354 25.2342 11.4643 25.0441C10.6446 24.8179 9.95043 24.3379 9.51381 23.6964L9.21289 23.2515C9.3772 24.2392 9.66612 25.2084 10.0741 26.1425C10.9634 28.0219 12.0581 29.7971 13.3381 31.4355L13.4507 31.5915C14.8418 33.5013 16.28 35.4767 16.6243 37.7133C16.7609 38.5312 16.8384 39.3564 16.856 40.1825C16.8477 40.4318 16.8975 40.6782 17.0009 40.9099C17.1043 41.1416 17.2594 41.353 17.4578 41.533C17.6304 41.6825 17.8354 41.8007 18.0615 41.8819C18.2867 41.9622 18.5286 42.0038 18.7723 42.0019H28.7729C29.0153 42.0038 29.2562 41.9632 29.4846 41.8819C29.7058 41.8044 29.9103 41.6857 30.0874 41.5321C30.2817 41.3589 30.4377 41.147 30.5452 40.9099C30.6486 40.6792 30.6975 40.4308 30.6901 40.1825C30.7086 39.3499 30.7861 38.5192 30.9246 37.6948C31.2661 35.4767 32.7034 33.5022 34.0944 31.5915L34.208 31.4345C35.4887 29.7954 36.5837 28.0193 37.4729 26.1388C37.88 25.2065 38.1689 24.2373 38.3332 23.2515L38.0314 23.6964C37.5947 24.3379 36.8997 24.8179 36.0809 25.0441Z" fill="black"/>
<path d="M38.052 14.628C37.8221 14.628 37.6024 14.7064 37.44 14.8477C37.362 14.9125 37.2989 14.9934 37.2551 15.0848C37.2113 15.1763 37.1878 15.2761 37.1861 15.3775V16.5544C37.1861 16.5711 37.1631 16.5895 37.1308 16.5895H35.7415C35.4504 16.5869 35.166 16.6767 34.9292 16.8461C34.7021 17.0123 34.5508 17.2431 34.5018 17.4969C34.3868 18.0821 34.2078 18.6529 33.9683 19.1991C33.8603 19.4409 33.8575 19.7086 33.9581 19.9523C34.0597 20.196 34.2581 20.4 34.5184 20.5264L35.7194 21.1172C35.7351 21.1264 35.7489 21.1412 35.7378 21.1578L35.0474 22.1769C35.0369 22.1882 35.0229 22.1957 35.0077 22.1981C34.992 22.2009 34.9758 22.1986 34.9615 22.1917L33.756 21.5981C33.4933 21.4717 33.1983 21.4285 32.9104 21.4744C32.6291 21.5153 32.3686 21.6465 32.1683 21.8483C31.7252 22.3043 31.2341 22.7234 30.7006 23.0991C30.4745 23.2493 30.3146 23.4806 30.2538 23.7452C30.2003 23.9991 30.2538 24.2621 30.4052 24.4855L31.1021 25.512C31.1132 25.5295 31.1021 25.5443 31.0837 25.5517L29.8874 26.1406C29.8731 26.1477 29.8569 26.1499 29.8412 26.1471C29.8262 26.1446 29.8126 26.1371 29.8024 26.1258L29.1074 25.1012C28.9455 24.8732 28.7113 24.7067 28.4428 24.6286C28.1624 24.5433 27.8626 24.5452 27.5834 24.6341C26.9326 24.8409 26.2615 24.9941 25.5775 25.0901C25.2919 25.1256 25.0259 25.254 24.8206 25.4557C24.6268 25.6523 24.5197 25.9015 24.5197 26.16V27.3434C24.5167 27.3546 24.5094 27.3642 24.4994 27.3701C24.4885 27.3765 24.4759 27.3791 24.4634 27.3775H23.0815C23.0693 27.3789 23.057 27.3763 23.0464 27.3701C23.0414 27.3671 23.0369 27.3631 23.0334 27.3584C23.0299 27.3536 23.0275 27.3482 23.0261 27.3424V26.16C23.0261 25.9015 22.9191 25.6523 22.7243 25.4566C22.519 25.255 22.253 25.1265 21.9674 25.0911C21.2876 24.9946 20.6169 24.8417 19.9624 24.6341C19.6855 24.5455 19.3809 24.5437 19.1021 24.6286C18.8335 24.707 18.5993 24.8739 18.4375 25.1021L17.7434 26.1267C17.733 26.1376 17.7194 26.1447 17.7046 26.1471C17.6889 26.1498 17.6728 26.1475 17.6584 26.1406L16.4621 25.5517C16.4581 25.5503 16.4543 25.5481 16.4511 25.5452C16.4476 25.5428 16.4448 25.5396 16.4428 25.536C16.4411 25.5321 16.4404 25.5279 16.4407 25.5237C16.441 25.5196 16.4424 25.5155 16.4446 25.512L17.1397 24.4855C17.292 24.2621 17.3455 23.9991 17.2911 23.7443C17.2306 23.4798 17.0711 23.2485 16.8452 23.0981C16.318 22.7283 15.8266 22.3098 15.3775 21.8483C15.1771 21.6466 14.9167 21.5155 14.6354 21.4744C14.3475 21.4285 14.0525 21.4716 13.7898 21.5981L12.5843 22.1907C12.5701 22.1981 12.5539 22.2007 12.5381 22.1981C12.5228 22.1959 12.5088 22.1884 12.4984 22.1769L11.808 21.1578C11.7988 21.144 11.8117 21.1246 11.8264 21.1181L13.0274 20.5274C13.2877 20.4 13.4871 20.1951 13.5877 19.9523C13.6892 19.7086 13.6855 19.4409 13.5784 19.1991C13.3385 18.6533 13.1593 18.0828 13.044 17.4978C12.9893 17.2343 12.8365 17.0013 12.6166 16.8461C12.3798 16.6768 12.0954 16.5869 11.8043 16.5895H10.4151C10.3818 16.5895 10.3597 16.5711 10.3597 16.5544V15.3775C10.3581 15.2761 10.3345 15.1763 10.2907 15.0848C10.2469 14.9934 10.1838 14.9125 10.1058 14.8477C9.9346 14.7037 9.71751 14.6258 9.49383 14.628C9.26491 14.628 9.04429 14.7064 8.88183 14.8477C8.80399 14.9126 8.74109 14.9935 8.69744 15.0849C8.65379 15.1764 8.63041 15.2762 8.62891 15.3775V16.5544C8.63075 16.9634 8.82091 17.3547 9.15506 17.6418C9.49106 17.9298 9.94337 18.0904 10.4151 18.0895H11.412C11.5154 18.5326 11.652 18.9683 11.82 19.3957L10.9717 19.8129C10.7723 19.9088 10.5933 20.0423 10.4446 20.2061C10.3035 20.3617 10.1977 20.5459 10.1344 20.7461C10.0733 20.9403 10.0575 21.1458 10.0883 21.3471C10.1197 21.5483 10.1963 21.7421 10.3154 21.9175L11.0058 22.9366C11.2468 23.2864 11.6363 23.5412 12.0904 23.6455C12.5436 23.7503 13.019 23.6975 13.4381 23.496L14.3077 23.0686C14.6612 23.4101 15.0388 23.7332 15.4384 24.0341L14.952 24.7523C14.8329 24.9277 14.7563 25.1215 14.7249 25.3227C14.6935 25.524 14.7092 25.7289 14.7711 25.9237C14.832 26.1194 14.9372 26.3031 15.0812 26.4637C15.2243 26.6234 15.4043 26.7572 15.6074 26.856L16.8046 27.4449C17.2238 27.6462 17.6991 27.699 18.1523 27.5944C18.5893 27.501 18.9759 27.2483 19.2369 26.8855L19.7326 26.1535C20.244 26.3012 20.7664 26.4194 21.2954 26.5098V27.3434C21.2981 27.7523 21.4874 28.1427 21.8224 28.4307C22.1575 28.7187 22.6108 28.8794 23.0824 28.8775H24.4643C24.9238 28.8831 25.3702 28.7247 25.7234 28.4307C26.0584 28.1427 26.2477 27.7514 26.2504 27.3434V26.5098C26.7776 26.4202 27.2993 26.3013 27.8132 26.1535L28.3089 26.8855C28.5498 27.2354 28.9394 27.4901 29.3935 27.5944C29.8467 27.6992 30.322 27.6464 30.7412 27.4449L31.9375 26.856C32.1369 26.7601 32.3159 26.6266 32.4646 26.4627C32.6058 26.3076 32.7116 26.1237 32.7748 25.9237C32.8359 25.7295 32.8517 25.5239 32.8209 25.3227C32.7885 25.1181 32.7109 24.9232 32.5938 24.7523L32.1074 24.0341C32.5071 23.7332 32.8846 23.411 33.2381 23.0686L34.1077 23.496C34.5175 23.6972 35.0003 23.7507 35.4554 23.6464C35.9095 23.5412 36.2991 23.2864 36.5391 22.9366L37.2304 21.9175C37.3486 21.7421 37.4261 21.5483 37.4566 21.348C37.488 21.1467 37.4723 20.9418 37.4104 20.7461C37.3472 20.5463 37.2418 20.3625 37.1012 20.2071C36.9525 20.0432 36.7735 19.9097 36.5741 19.8138L35.7249 19.3966C35.8938 18.9683 36.0304 18.5326 36.1348 18.0895H37.1308C37.5903 18.0949 38.0368 17.9361 38.3898 17.6418C38.7249 17.3547 38.9151 16.9634 38.9169 16.5544V15.3775C38.9154 15.2762 38.892 15.1764 38.8484 15.0849C38.8047 14.9935 38.7418 14.9126 38.664 14.8477C38.4928 14.7037 38.2757 14.6258 38.052 14.628Z" fill="black"/>
<path d="M17.7139 15.3784C17.485 15.3784 17.2643 15.4568 17.1019 15.5971C17.0239 15.6621 16.961 15.7432 16.9173 15.8348C16.8736 15.9264 16.8503 16.0264 16.849 16.1279C16.849 19.3661 19.8896 21.9027 23.772 21.9027C27.6536 21.9027 30.6951 19.3661 30.6951 16.1279C30.6936 16.0264 30.6702 15.9263 30.6264 15.8347C30.5825 15.7431 30.5194 15.662 30.4413 15.5971C30.27 15.4533 30.0529 15.3753 29.8293 15.3774C29.6056 15.3757 29.3887 15.4536 29.2173 15.5971C29.1393 15.6621 29.0763 15.7432 29.0327 15.8348C28.989 15.9264 28.9657 16.0264 28.9643 16.1279C28.9643 18.5648 26.7314 20.4018 23.772 20.4018C20.8117 20.4018 18.5797 18.5648 18.5797 16.1279C18.5782 16.0264 18.5548 15.9263 18.511 15.8347C18.4671 15.7431 18.404 15.662 18.3259 15.5971C18.1546 15.4533 17.9376 15.3763 17.7139 15.3784ZM9.79019 11.2153H13.3874V13.5027C13.3874 13.7011 13.4779 13.8922 13.6403 14.0334C13.8028 14.1738 14.0234 14.2522 14.2523 14.2522C14.4822 14.2522 14.7019 14.1738 14.8643 14.0334C14.9425 13.9685 15.0056 13.8875 15.0494 13.7959C15.0932 13.7043 15.1167 13.6042 15.1182 13.5027V10.4648C15.1167 10.3633 15.0932 10.2633 15.0494 10.1716C15.0056 10.08 14.9425 9.99896 14.8643 9.93406C14.6931 9.79019 14.476 9.71227 14.2523 9.71437H9.75788C9.54373 9.21775 9.13296 8.80329 8.59942 8.5439C8.05347 8.28209 7.44004 8.19506 6.84281 8.29467C6.2603 8.38421 5.72329 8.66245 5.31419 9.08667C4.9368 9.47775 4.72855 10.0017 4.7345 10.5451C4.7465 11.0759 4.97358 11.5854 5.37604 11.9851C5.80215 12.395 6.35002 12.6552 6.93696 12.7264C7.536 12.8074 8.14542 12.7009 8.68158 12.4218C9.20404 12.1448 9.59727 11.7184 9.79019 11.2153ZM7.32927 11.2522C7.1585 11.2522 6.99142 11.2088 6.84927 11.1267C6.71126 11.0492 6.59992 10.9317 6.52988 10.7898C6.46469 10.6549 6.44743 10.5019 6.48096 10.3559C6.51695 10.2061 6.59972 10.0716 6.71727 9.97191C6.84365 9.86468 6.9968 9.79385 7.16035 9.76698C7.32835 9.73837 7.50188 9.75314 7.66065 9.80944C7.81361 9.86296 7.94811 9.95903 8.04835 10.0864C8.14243 10.2045 8.19411 10.3508 8.19511 10.5018C8.19511 10.7011 8.10281 10.8922 7.94127 11.0325C7.76999 11.1764 7.55294 11.2543 7.32927 11.2522ZM40.2139 8.25221C39.6943 8.25082 39.184 8.38987 38.737 8.65467C38.3031 8.91591 37.9708 9.28606 37.7862 9.71437H33.2908C33.0672 9.7126 32.8502 9.79047 32.6788 9.93406C32.6009 9.99905 32.5379 10.0801 32.4942 10.1717C32.4506 10.2634 32.4273 10.3633 32.4259 10.4648V13.5018C32.4259 13.7011 32.5173 13.8922 32.6788 14.0325C32.8413 14.1738 33.0619 14.2522 33.2908 14.2522C33.5207 14.2522 33.7403 14.1738 33.9028 14.0334C33.9809 13.9685 34.0441 13.8875 34.0879 13.7959C34.1317 13.7043 34.1552 13.6042 34.1567 13.5027V11.2144H37.7539C37.9043 11.6076 38.1785 11.9565 38.544 12.2233C38.9226 12.4948 39.363 12.6674 39.8253 12.7254C40.2958 12.7878 40.7745 12.7362 41.221 12.575C41.6483 12.4237 42.028 12.1619 42.3213 11.8162C42.6 11.4802 42.7671 11.0842 42.8031 10.6716C42.838 10.2538 42.7404 9.83554 42.5243 9.47621C42.294 9.09595 41.963 8.78673 41.568 8.58267C41.1502 8.36411 40.6854 8.25068 40.2139 8.25221ZM40.2139 11.2522C40.0431 11.2522 39.876 11.2088 39.7339 11.1267C39.5959 11.0492 39.4845 10.9317 39.4145 10.7898C39.3493 10.6549 39.332 10.5019 39.3656 10.3559C39.4015 10.206 39.4843 10.0715 39.6019 9.97191C39.7283 9.86468 39.8814 9.79385 40.045 9.76698C40.213 9.73837 40.3865 9.75314 40.5453 9.80944C40.6983 9.86291 40.8328 9.95899 40.933 10.0864C41.027 10.2045 41.0787 10.3508 41.0797 10.5018C41.0797 10.7011 40.9874 10.8922 40.8259 11.0325C40.6546 11.1763 40.4375 11.2542 40.2139 11.2522Z" fill="black"/>
<path d="M45.4068 3.75237C44.8798 3.75111 44.3625 3.89447 43.9114 4.16684C43.4877 4.41855 43.1553 4.79881 42.9624 5.25237H29.8308C29.6009 5.25237 29.3812 5.33176 29.2188 5.47207C29.1406 5.53696 29.0775 5.61801 29.0337 5.70963C28.9899 5.80126 28.9664 5.90128 28.9649 6.00284V13.5028C28.9664 13.6043 28.9899 13.7041 29.0337 13.7956C29.0775 13.8871 29.1407 13.968 29.2188 14.0327C29.3812 14.1739 29.6009 14.2524 29.8308 14.2524C30.0597 14.2524 30.2803 14.1739 30.4428 14.0327C30.5206 13.9678 30.5835 13.8869 30.6271 13.7954C30.6708 13.704 30.6942 13.6042 30.6957 13.5028V6.75237H42.9634C43.1212 7.14099 43.4009 7.48437 43.7692 7.74468C44.1384 8.00499 44.5824 8.17299 45.0541 8.2293C45.5249 8.2856 46.0049 8.2293 46.4415 8.06499C46.8781 7.90068 47.2538 7.63576 47.528 7.29884C47.7973 6.97434 47.9609 6.57527 47.9969 6.15514C48.0284 5.73918 47.929 5.32379 47.7126 4.96714C47.4812 4.58939 47.1503 4.28251 46.7563 4.08007C46.3399 3.86334 45.8771 3.75089 45.4077 3.75237H45.4068ZM45.4068 6.75237C45.236 6.75237 45.0689 6.70899 44.9268 6.62591C44.7892 6.54849 44.6782 6.43139 44.6083 6.28991C44.5428 6.15518 44.5252 6.00214 44.5584 5.85607C44.5947 5.7061 44.6778 5.57159 44.7957 5.47207C44.9221 5.36484 45.0752 5.29401 45.2388 5.26714C45.4068 5.23853 45.5803 5.2533 45.7381 5.3096C45.8915 5.36292 46.0263 5.45901 46.1268 5.58653C46.2218 5.7093 46.2726 5.85422 46.2726 6.00191C46.2712 6.10347 46.2477 6.20352 46.2039 6.29515C46.1601 6.38679 46.0969 6.46782 46.0188 6.53268C45.8477 6.67634 45.631 6.75425 45.4077 6.75237H45.4068ZM22.9077 4.37084V15.7524C22.9077 15.9518 22.9991 16.1419 23.1606 16.2831C23.3231 16.4234 23.5437 16.5028 23.7726 16.5028C24.0024 16.5028 24.2221 16.4234 24.3846 16.2831C24.4627 16.2182 24.5259 16.1372 24.5697 16.0456C24.6135 15.9539 24.637 15.8539 24.6384 15.7524V4.37084C25.2154 4.19453 25.7018 3.84653 26.012 3.38868C26.1638 3.16952 26.2703 2.92219 26.3252 2.66126C26.38 2.40032 26.3821 2.13106 26.3314 1.8693C26.228 1.34684 25.9141 0.872374 25.4461 0.529912C24.958 0.181419 24.3723 -0.00401519 23.7726 6.59472e-05C23.1606 6.59472e-05 22.568 0.187451 22.0991 0.529912C21.6311 0.871451 21.3172 1.34684 21.2138 1.8693C21.1104 2.39268 21.2231 2.93084 21.5332 3.38868C21.8434 3.84653 22.3298 4.1936 22.9077 4.37084ZM23.7726 1.50284C23.9443 1.50284 24.1114 1.54622 24.2535 1.6293C24.3911 1.70672 24.502 1.82382 24.572 1.9653C24.6375 2.10284 24.6551 2.2533 24.6218 2.39914C24.5856 2.54911 24.5025 2.68362 24.3846 2.78314C24.2582 2.89036 24.1051 2.9612 23.9415 2.98807C23.7735 3.0176 23.6 3.00191 23.4412 2.9456C23.2882 2.89213 23.1537 2.79605 23.0535 2.66868C22.9603 2.55018 22.909 2.40408 22.9077 2.2533C22.9077 2.05391 22.9991 1.86284 23.1615 1.72253C23.3231 1.58222 23.5437 1.50284 23.7726 1.50284ZM16.8495 13.5028C16.851 13.6043 16.8745 13.7041 16.9183 13.7956C16.9621 13.8871 17.0253 13.968 17.1034 14.0327C17.2658 14.1739 17.4855 14.2524 17.7154 14.2524C17.9443 14.2524 18.1649 14.1739 18.3274 14.0327C18.4052 13.9678 18.4681 13.8869 18.5118 13.7954C18.5554 13.704 18.5788 13.6042 18.5803 13.5028V6.00284C18.5789 5.90136 18.5556 5.80137 18.5119 5.70976C18.4683 5.61814 18.4053 5.53705 18.3274 5.47207C18.1561 5.32812 17.9391 5.2502 17.7154 5.25237H4.58276C4.37876 4.75207 3.97722 4.33022 3.44922 4.0616C2.90715 3.79063 2.29455 3.69391 1.69537 3.78468C1.11038 3.86549 0.567785 4.13516 0.150139 4.55268C-0.244014 4.95884 -0.460938 5.47207 -0.460938 6.00191C-0.460938 6.5336 -0.244014 7.04684 0.150139 7.45299C0.545216 7.85914 1.0926 8.13053 1.69629 8.22007C2.29518 8.31065 2.90742 8.21392 3.44922 7.94314C3.97722 7.67545 4.37876 7.25268 4.58276 6.75237H16.8504L16.8495 13.5028ZM2.13845 6.75237C1.96675 6.75237 1.79968 6.70899 1.65752 6.62591C1.51999 6.54849 1.40901 6.43139 1.33906 6.28991C1.27348 6.15521 1.2559 6.00214 1.28922 5.85607C1.32545 5.7061 1.40855 5.57159 1.52645 5.47207C1.65282 5.36484 1.80598 5.29401 1.96952 5.26714C2.13752 5.23853 2.31106 5.2533 2.46891 5.3096C2.6222 5.36297 2.75704 5.45905 2.85752 5.58653C2.9526 5.7093 3.00337 5.85422 3.00337 6.00191C3.00195 6.10347 2.97852 6.20352 2.93469 6.29515C2.89087 6.38679 2.82769 6.46782 2.74952 6.53268C2.57849 6.67634 2.3618 6.75425 2.13845 6.75237Z" fill="black"/>
</g>
</g>
</g>
<defs>
<clipPath id="clip0_4_2759">
<rect width="48" height="48" fill="white"/>
</clipPath>
<clipPath id="clip1_4_2759">
<rect width="48" height="48" fill="white"/>
</clipPath>
<clipPath id="clip2_4_2759">
<rect width="48.9231" height="48" fill="white" transform="translate(-0.460938)"/>
</clipPath>
</defs>
</svg>
