<svg width="48" height="48" viewBox="0 0 48 48" fill="none" xmlns="http://www.w3.org/2000/svg">
<g clip-path="url(#clip0_4_2768)">
<g clip-path="url(#clip1_4_2768)">
<g clip-path="url(#clip2_4_2768)">
<mask id="mask0_4_2768" style="mask-type:luminance" maskUnits="userSpaceOnUse" x="0" y="0" width="48" height="48">
<path d="M0 0H48V48H0V0Z" fill="white"/>
</mask>
<g mask="url(#mask0_4_2768)">
<path d="M43.8988 32.2735L27.36 37.7418C27.2703 37.7681 27.1747 37.7652 27.0868 37.7335L19.6837 34.992C19.5803 34.951 19.4946 34.8749 19.4419 34.7769C19.3892 34.6789 19.3729 34.5655 19.3957 34.4566L19.8212 32.2892C19.8364 32.2021 19.8768 32.1214 19.9373 32.0569C19.9978 31.9925 20.0759 31.9471 20.1618 31.9265L26.448 30.8178C28.056 30.4542 29.064 28.8868 28.7428 27.2492C28.4502 25.7668 27.0877 24.7062 25.6172 24.8049H25.6135L14.2809 25.5231C13.1446 25.5928 12.0424 25.9392 11.0705 26.532L5.86338 29.7129C5.02361 30.2267 4.05834 30.4989 3.07385 30.4994H2.4C1.07723 30.4994 0 31.5886 0 32.9271V39.7892C0 40.9126 0.753231 41.8837 1.83138 42.1477L24.7163 47.7951C25.2638 47.9306 25.8258 47.9992 26.3898 47.9991C27.5347 47.9982 28.662 47.7171 29.6732 47.1803L46.3015 38.172C46.9994 37.8001 47.5356 37.1839 47.8074 36.4413C48.0793 35.6987 48.0676 34.8819 47.7748 34.1474C47.172 32.6095 45.4745 31.7843 43.8988 32.2735ZM45.5465 36.7625L28.9172 45.7717C27.7458 46.3917 26.3873 46.5593 25.1003 46.2425L2.21538 40.5969C2.03724 40.5509 1.87974 40.4464 1.76823 40.3C1.65672 40.1537 1.59768 39.9741 1.60062 39.7902V32.9289C1.60062 32.4729 1.95877 32.1009 2.40092 32.1009H3.07477C4.35335 32.1002 5.60698 31.7469 6.69785 31.08L11.9058 27.8991C12.6549 27.4424 13.5041 27.1756 14.3797 27.1218L25.7151 26.4037C26.4018 26.3668 27.0351 26.8597 27.1735 27.5594C27.3231 28.3283 26.8412 29.0898 26.1332 29.2505L19.8692 30.3545C19.468 30.4333 19.0996 30.6305 18.8114 30.9205C18.5232 31.2105 18.3283 31.5802 18.252 31.9818L17.8265 34.1492C17.7282 34.6313 17.8055 35.1326 18.0446 35.5626C18.2836 35.9926 18.6685 36.3229 19.1298 36.4938L26.5329 39.2354C26.9575 39.3895 27.42 39.4006 27.8502 39.2649L44.3889 33.7975C45.1698 33.5594 45.984 33.9591 46.2877 34.7326C46.4366 35.1027 46.4435 35.5148 46.307 35.8896C46.1705 36.2645 45.9003 36.5757 45.5483 36.7634L45.5465 36.7625ZM24 20.7997H41.6003C42.4828 20.7997 43.2 20.0825 43.2 19.2V14.7683C43.2 14.6206 43.2775 14.5265 43.3237 14.484C43.4032 14.4183 43.5031 14.3824 43.6062 14.3825C44.3126 14.4514 45.0247 14.3315 45.6696 14.0348C46.3145 13.7382 46.869 13.2755 47.2763 12.6942C48.0397 11.604 48.2086 10.2323 47.736 8.93354C47.3049 7.74554 46.3302 6.87323 45.0591 6.54092C44.5767 6.41055 44.0743 6.37142 43.5775 6.42554C43.533 6.42924 43.4881 6.42379 43.4457 6.4095C43.4033 6.39521 43.3643 6.3724 43.3311 6.34246C43.2897 6.30515 43.2566 6.25959 43.2339 6.20872C43.2111 6.15785 43.1993 6.10279 43.1991 6.04708V1.59969C43.1991 0.717231 42.4818 0 41.5994 0H37.1511C36.5815 0 36.0378 0.243692 35.6603 0.668308C35.48 0.870128 35.3444 1.10774 35.2624 1.36559C35.1803 1.62345 35.1536 1.89573 35.184 2.16462C35.2163 2.44154 35.1923 2.74246 35.1102 3.05538C34.9135 3.80677 34.4068 4.38185 33.7209 4.63108C32.916 4.92277 32.0797 4.82492 31.4225 4.36523C31.1066 4.14393 30.8488 3.84978 30.6707 3.50769C30.4927 3.1656 30.3997 2.78564 30.3997 2.4C30.3997 2.30308 30.4071 2.21354 30.4135 2.11938C30.442 1.71089 30.3431 1.30363 30.1303 0.953775C29.9175 0.603921 29.6014 0.328725 29.2255 0.166154C28.9748 0.0568424 28.7043 0.000285212 28.4308 0L24 0C23.1175 0 22.4003 0.717231 22.4003 1.59969V6.03231C22.4004 6.08561 22.3894 6.13835 22.3679 6.18715C22.3464 6.23595 22.315 6.27973 22.2757 6.31569C22.2387 6.35189 22.1943 6.3797 22.1455 6.39722C22.0968 6.41474 22.0448 6.42156 21.9932 6.41723C21.2868 6.34853 20.5748 6.46873 19.9301 6.76554C19.2854 7.06235 18.7311 7.52511 18.324 8.10646C17.5597 9.19569 17.3917 10.5674 17.8643 11.8662C18.2954 13.0542 19.2692 13.9274 20.5403 14.2588C21.0231 14.388 21.5252 14.4277 22.0228 14.3742C22.0672 14.3705 22.1119 14.3759 22.1542 14.3902C22.1964 14.4045 22.2352 14.4273 22.2683 14.4572C22.3096 14.4946 22.3427 14.5401 22.3655 14.591C22.3882 14.6419 22.4001 14.6969 22.4003 14.7526V19.2009C22.4003 20.0834 23.1185 20.8006 24.0009 20.8006L24 20.7997ZM22.0532 12.7726C21.9807 12.7725 21.9083 12.7768 21.8363 12.7855C21.5368 12.817 21.234 12.792 20.9437 12.7117C20.1923 12.5142 19.6172 12.0083 19.3689 11.3215C19.0772 10.5185 19.1751 9.68123 19.6338 9.02492C19.8552 8.70879 20.1494 8.45063 20.4917 8.27228C20.8339 8.09393 21.2141 8.00064 21.6 8.00031C21.6978 8.00031 21.7883 8.00769 21.8806 8.01415C22.1513 8.03425 22.4232 7.99785 22.679 7.90728C22.9348 7.8167 23.169 7.67392 23.3668 7.488C23.5662 7.30194 23.7254 7.07689 23.8343 6.8268C23.9432 6.57672 23.9996 6.30693 24 6.03415V1.59969H28.4308C28.4834 1.59919 28.5356 1.60958 28.5841 1.63021C28.6326 1.65084 28.6762 1.68127 28.7124 1.71958C28.7485 1.75789 28.7764 1.80326 28.7941 1.85284C28.8119 1.90242 28.8193 1.95514 28.8157 2.00769C28.7473 2.71381 28.8677 3.42541 29.1645 4.06976C29.4613 4.71411 29.9239 5.26809 30.5049 5.67508C31.5942 6.44031 32.9658 6.60738 34.2674 6.13477C35.4554 5.70277 36.3268 4.72708 36.6582 3.45785C36.7874 2.97692 36.8271 2.47477 36.7735 1.97815C36.7688 1.93337 36.7737 1.88808 36.7881 1.84539C36.8024 1.80269 36.8258 1.7636 36.8566 1.73077C36.8939 1.68939 36.9395 1.65628 36.9904 1.63355C37.0412 1.61081 37.0963 1.59897 37.152 1.59877H41.5994V6.04615C41.5995 6.32783 41.659 6.60632 41.7742 6.86338C41.8894 7.12044 42.0575 7.35028 42.2677 7.53785C42.4694 7.71802 42.7068 7.85352 42.9646 7.93544C43.2223 8.01737 43.4944 8.04388 43.7631 8.01323C44.0627 7.98192 44.3655 8.00728 44.6557 8.088C45.408 8.28462 45.9822 8.79138 46.2314 9.47723C46.5222 10.2803 46.4252 11.1175 45.9655 11.7748C45.7441 12.0907 45.4498 12.3487 45.1076 12.5269C44.7653 12.7051 44.3852 12.7982 43.9994 12.7985C43.9025 12.7985 43.8111 12.7911 43.7188 12.7846C43.4481 12.7643 43.1762 12.8007 42.9203 12.8913C42.6644 12.9818 42.4302 13.1247 42.2326 13.3108C42.0332 13.497 41.8741 13.7223 41.7651 13.9725C41.6562 14.2227 41.5998 14.4926 41.5994 14.7655V19.1972L24 19.1991V14.7498C23.9999 14.4682 23.9403 14.1897 23.8252 13.9326C23.71 13.6756 23.5418 13.4457 23.3317 13.2582C22.9795 12.9447 22.5247 12.7713 22.0532 12.7708V12.7726Z" fill="black"/>
<path d="M31.4352 14.965C31.5093 15.0396 31.5974 15.0988 31.6944 15.1392C31.7914 15.1796 31.8955 15.2004 32.0006 15.2004C32.1057 15.2004 32.2098 15.1796 32.3068 15.1392C32.4039 15.0988 32.492 15.0396 32.566 14.965L36.5666 10.9653C36.7088 10.8137 36.7863 10.6127 36.7829 10.4049C36.7795 10.1971 36.6954 9.99875 36.5484 9.85185C36.4014 9.70495 36.203 9.621 35.9952 9.61777C35.7874 9.61454 35.5864 9.69229 35.4349 9.83455L32.0011 13.2684L30.166 11.4342C30.0144 11.2921 29.8134 11.2145 29.6056 11.2179C29.3978 11.2213 29.1994 11.3054 29.0525 11.4525C28.9056 11.5995 28.8217 11.7979 28.8185 12.0057C28.8152 12.2135 28.893 12.4144 29.0352 12.5659L31.4352 14.965Z" fill="black"/>
</g>
</g>
</g>
</g>
<defs>
<clipPath id="clip0_4_2768">
<rect width="48" height="48" fill="white"/>
</clipPath>
<clipPath id="clip1_4_2768">
<rect width="48" height="48" fill="white"/>
</clipPath>
<clipPath id="clip2_4_2768">
<rect width="48" height="48" fill="white"/>
</clipPath>
</defs>
</svg>
