<svg width="49" height="49" viewBox="0 0 49 49" fill="none" xmlns="http://www.w3.org/2000/svg">
<path fill-rule="evenodd" clip-rule="evenodd" d="M11.6034 5.02898C12.165 5.16278 12.7017 5.38528 13.1933 5.68809L14.2264 5.22929L15.444 6.44692L14.9853 7.47977C15.2883 7.97141 15.5108 8.50825 15.6445 9.07003L16.6986 9.47574V11.1977L15.6444 11.6035C15.5106 12.1651 15.2881 12.7018 14.9852 13.1934L15.4441 14.2265L14.2265 15.4441L13.1938 14.9854C12.7021 15.2883 12.1652 15.5109 11.6034 15.6446L11.1977 16.6986H9.47574L9.06993 15.6444C8.50831 15.5106 7.97162 15.2881 7.48007 14.9852L6.44692 15.4441L5.22929 14.2265L5.68799 13.1938C5.38504 12.7021 5.1625 12.1652 5.02878 11.6034L3.97471 11.1977V9.47574L5.02888 9.06993C5.16266 8.50827 5.38516 7.97154 5.68799 7.47997L5.22919 6.44692L6.44682 5.22929L7.47997 5.68809C7.97152 5.38528 8.50821 5.16278 9.06983 5.02898L9.47564 3.97471H11.1976L11.6034 5.02898ZM14.5445 2.66784C14.4001 2.76339 14.291 2.90348 14.2336 3.06678C14.1762 3.23009 14.1737 3.40767 14.2265 3.57251C14.2793 3.73735 14.3846 3.88043 14.5262 3.97997C14.6678 4.0795 14.838 4.13005 15.011 4.12393L16.7135 4.06277C17.2482 4.08179 17.6564 3.57219 17.5075 3.04904L17.0246 1.35658C16.9767 1.18836 16.8748 1.04059 16.7345 0.936096C16.5943 0.831605 16.4235 0.776208 16.2486 0.778463C16.0737 0.780719 15.9044 0.840502 15.7669 0.948576C15.6294 1.05665 15.5313 1.207 15.4878 1.3764C13.9208 0.474536 12.1445 -8.88838e-05 10.3366 1.24853e-08C4.62795 1.24853e-08 0 4.62805 0 10.3367C0 12.2055 0.507609 14.0427 1.46924 15.6453C1.57908 15.8226 1.75424 15.9496 1.9569 15.9989C2.15956 16.0482 2.37348 16.0158 2.55247 15.9087C2.73146 15.8017 2.86117 15.6285 2.91359 15.4266C2.96602 15.2248 2.93696 15.0104 2.83269 14.8297C2.01321 13.4641 1.59375 11.9285 1.59375 10.3367C1.59375 5.508 5.5079 1.59375 10.3366 1.59375C11.8149 1.59375 13.2508 1.95573 14.5445 2.66784ZM5.18537 19.2974C6.75234 20.1993 8.52871 20.6737 10.3367 20.6732C16.0453 20.6732 20.6733 16.0453 20.6733 10.3367C20.6733 8.50903 20.1933 6.72184 19.2731 5.14243C19.1666 4.96166 18.993 4.83032 18.79 4.77705C18.5871 4.72378 18.3713 4.75291 18.1897 4.85807C18.0082 4.96323 17.8755 5.1359 17.8208 5.33844C17.766 5.54099 17.7935 5.75697 17.8973 5.93931C18.6777 7.27866 19.0797 8.78714 19.0797 10.3367C19.0797 15.1653 15.1654 19.0795 10.3368 19.0795C8.85956 19.0795 7.42279 18.7164 6.13006 18.0047C6.27416 17.909 6.38306 17.7688 6.44023 17.6055C6.49739 17.4423 6.49968 17.2648 6.44676 17.1001C6.39383 16.9354 6.28859 16.7925 6.14701 16.6931C6.00544 16.5936 5.83528 16.5432 5.66239 16.5493L3.95997 16.6105C3.42527 16.5916 3.01697 17.1009 3.16588 17.6242L3.64879 19.3166C3.69658 19.4849 3.79844 19.6327 3.93864 19.7372C4.07884 19.8418 4.24956 19.8973 4.42444 19.8951C4.59931 19.8929 4.76859 19.8332 4.90613 19.7251C5.04367 19.6171 5.1418 19.4668 5.18537 19.2974ZM22.0742 8.19636H45.0259C45.3063 8.19636 45.5357 8.42576 45.5357 8.70606V31.569H3.87052V21.4252C3.05412 21.2327 2.36194 20.616 2.116 19.7539L1.6331 18.0615C1.58487 17.8927 1.55538 17.7192 1.54514 17.544C1.27801 17.474 1.0249 17.3585 0.796875 17.2027V34.085C0.796875 36.1066 2.45089 37.7607 4.47256 37.7607H17.1898V43.6005H11.5949C9.87089 43.6005 8.46042 44.7275 8.46042 46.105V48.6094H40.946V46.1049C40.946 44.7274 39.5356 43.6004 37.8115 43.6004H32.2167V37.7606H44.9338C46.9554 37.7606 48.6094 36.1065 48.6094 34.0849V8.7983C48.6094 6.77672 46.9554 5.12261 44.9338 5.12261H21.0674C21.5417 6.09645 21.8804 7.13063 22.0742 8.19636ZM19.669 21.1117C19.5027 21.2367 19.2939 21.2915 19.0877 21.2642C18.8814 21.2369 18.6941 21.1297 18.566 20.9658C18.4379 20.8018 18.3793 20.5941 18.4028 20.3874C18.4263 20.1807 18.5299 19.9914 18.6915 19.8603L25.5749 14.5005C25.6769 14.4208 25.7969 14.3672 25.9244 14.3445C26.0519 14.3218 26.183 14.3306 26.3062 14.3702L32.7269 16.4507L37.7362 11.3985L37.658 11.4054C37.5538 11.4144 37.4488 11.4027 37.3491 11.3712C37.2493 11.3396 37.1568 11.2887 37.0767 11.2213C36.9966 11.154 36.9306 11.0715 36.8824 10.9787C36.8342 10.8858 36.8048 10.7844 36.7958 10.6801C36.7868 10.5759 36.7984 10.4709 36.83 10.3712C36.8616 10.2714 36.9125 10.1789 36.9799 10.0988C37.0472 10.0187 37.1297 9.95272 37.2225 9.90452C37.3154 9.85633 37.4168 9.82689 37.5211 9.8179L39.7618 9.62137C40.2816 9.57655 40.703 10.0428 40.6154 10.5507L40.371 12.7376C40.3488 12.945 40.246 13.1353 40.0848 13.2676C39.9236 13.3999 39.7169 13.4637 39.5093 13.4451C39.3016 13.4265 39.1095 13.3271 38.9743 13.1683C38.8392 13.0094 38.7719 12.8039 38.7868 12.5959L33.5104 17.9174C33.4071 18.0213 33.2772 18.0945 33.1349 18.1291C32.9926 18.1637 32.8436 18.1584 32.7041 18.1136L26.2187 16.0116L19.669 21.1117ZM18.024 24.3267H20.3365C20.7205 24.3267 21.0338 24.64 21.0338 25.024V29.9754H17.3268V25.024C17.3268 24.6399 17.6399 24.3267 18.024 24.3267ZM38.6741 14.8742H40.9867C41.3707 14.8742 41.6839 15.1874 41.6839 15.5714V29.9753H37.9769V15.5714C37.9769 15.1874 38.29 14.8742 38.6741 14.8742ZM31.7907 21.282H34.1033C34.4874 21.282 34.8005 21.5953 34.8005 21.9794V29.9754H31.0935V21.9794C31.0935 21.5952 31.4067 21.282 31.7907 21.282ZM24.9074 19.737H27.22C27.6039 19.737 27.9172 20.0502 27.9172 20.4343V29.9754H24.2103V20.4343C24.2102 20.0502 24.5233 19.737 24.9074 19.737ZM10.3367 7.33354C8.67797 7.33354 7.33354 8.67797 7.33354 10.3367C7.33354 11.9954 8.67797 13.3398 10.3367 13.3398C11.9954 13.3398 13.3398 11.9954 13.3398 10.3367C13.3398 8.67797 11.9954 7.33354 10.3367 7.33354Z" fill="#3C3C3D"/>
</svg>
