<svg width="477" height="12" viewBox="0 0 477 12" fill="none" xmlns="http://www.w3.org/2000/svg">
<g clip-path="url(#clip0_4_2862)">
<g clip-path="url(#clip1_4_2862)">
<path d="M330.073 2.85305C330.257 3.14505 330.106 3.39105 329.586 3.44305C328.284 3.57405 326.968 3.69405 325.646 3.72005C322.772 3.77305 319.891 3.76105 317.247 3.77605C316.543 4.07205 316.622 4.26205 317.273 4.33305C317.924 4.40405 318.595 4.41905 319.26 4.41905C343.945 4.46805 368.638 4.49805 393.323 4.56905C395.981 4.57605 398.638 4.76705 401.282 4.95005C404.387 5.16305 407.472 5.27905 410.583 4.95405C411.886 4.81905 413.247 4.67405 414.549 4.74405C426.304 5.38705 438.084 5.25305 449.858 5.27105C451.167 5.27505 452.476 5.42505 453.778 5.53305C453.877 5.54105 454.002 5.73905 453.995 5.84305C453.989 5.95205 453.884 6.12005 453.739 6.15005C452.93 6.32605 452.088 6.62505 451.279 6.59805C448.839 6.52005 446.431 6.38505 444.03 6.84105C443.228 6.99505 442.267 6.88305 441.379 6.87905C434.71 6.87105 428.04 6.85305 421.37 6.85605C411.583 6.86005 401.802 6.87905 392.015 6.88605C388.68 6.89005 385.358 6.94205 382.036 7.20405C379.622 7.39405 377.162 7.41405 374.722 7.42405C357.377 7.50405 340.025 7.54405 322.68 7.62605C317.352 7.65305 312.031 7.68205 306.696 7.98205C301.408 8.28105 296.047 8.20605 290.719 8.22105C265.362 8.27705 240.006 8.28805 214.656 8.35105C203.98 8.37805 193.305 8.52705 182.629 8.54605C171.507 8.56105 160.39 8.46405 149.268 8.45305C133.699 8.43805 118.129 8.44105 102.56 8.47505C99.6799 8.48205 96.7979 8.65805 93.9099 8.76305C91.6938 8.84105 89.4769 8.97605 87.2599 9.00605C82.1499 9.07605 77.0319 9.08805 71.9149 9.14805C69.4679 9.17805 66.9949 9.13705 64.5879 9.33805C58.8449 9.82405 53.0639 9.84705 47.2878 9.95105C44.6248 10.0011 41.9739 10.1721 39.3098 10.2911C32.4428 10.6061 25.6479 11.2931 18.7549 11.4811C16.9848 11.5291 15.2289 11.7711 13.4599 11.8241C10.1379 11.9251 6.80285 12.0041 3.47485 12.0001C1.56085 12.0001 0.277852 11.1441 0.192852 10.0041C0.106852 8.87405 0.0538516 7.74205 0.000851572 6.61405C-0.0251484 6.04505 0.546852 5.61905 1.35585 5.40605C2.55285 5.09605 3.81585 4.80405 5.10585 4.68805C6.85485 4.53105 8.64985 4.56505 10.4259 4.47905C13.5239 4.33305 16.6218 4.16905 19.7208 3.99705C20.8258 3.93705 21.9239 3.81005 23.0289 3.76505C31.4548 3.42505 39.8549 2.92805 48.2409 2.38505C51.3259 2.18805 54.4569 2.22505 57.5679 2.17305C63.3429 2.07905 69.1319 2.13505 74.8679 1.59005C76.6098 1.42505 78.4129 1.47005 80.1949 1.43605C87.5229 1.30905 94.8499 1.29405 102.178 0.891054C108.361 0.551054 114.622 0.595054 120.845 0.595054C143.978 0.592054 167.105 0.651054 190.239 0.663054C218.259 0.677054 246.286 0.681054 274.307 0.673054C283.424 0.670054 292.547 0.633054 301.663 0.573054C304.327 0.554054 306.985 0.405054 309.649 0.323054C310.754 0.289054 311.865 0.225054 312.97 0.259054C315.851 0.341054 318.732 0.550054 321.607 0.554054C324.251 0.558054 326.895 0.352054 329.539 0.255054C329.697 0.248054 330.033 0.415054 330.006 0.468054C329.921 0.674054 329.809 0.991054 329.566 1.04005C328.743 1.20505 327.862 1.34305 326.994 1.36205C324.33 1.42505 321.659 1.41405 318.989 1.47005C318.121 1.48905 317.233 1.58205 316.404 1.72805C316.16 1.76905 316.035 2.10505 315.963 2.32205C315.937 2.39705 316.206 2.57205 316.377 2.59505C317.233 2.70005 318.167 2.92005 318.963 2.82305C322.705 2.37505 326.396 2.59105 330.073 2.85305ZM306.9 2.52005C306.736 2.45305 306.571 2.33005 306.407 2.32605C302.651 2.28505 298.895 2.25105 295.133 2.24005C294.291 2.23605 293.442 2.32605 292.521 2.37805C293.074 3.11105 294.087 2.93905 294.876 2.96105C296.685 3.00605 298.376 3.06205 299.54 4.05705C299.79 4.27005 300.849 4.36305 301.355 4.25105C303.204 3.84705 304.98 3.33905 306.762 2.85305C306.874 2.81905 306.854 2.63305 306.9 2.52005ZM270.434 2.41205C269.908 2.41205 269.474 2.39705 269.039 2.41905C268.842 2.43105 268.54 2.47905 268.48 2.55805C268.303 2.79305 268.579 2.92805 269.158 2.98405C269.803 3.04405 270.434 3.15205 271.072 3.21605C271.624 3.27205 271.96 3.13705 271.947 2.85605C271.94 2.76005 271.756 2.62105 271.598 2.58405C271.19 2.49805 270.763 2.45705 270.434 2.41205Z" fill="#2E68FD"/>
<path d="M363.077 -5.9331e-05C368.629 -5.9331e-05 374.18 -0.00305933 379.732 0.00494067C381.955 0.00794067 384.192 -0.0100593 386.263 0.542941C386.586 0.628941 386.75 0.912941 386.987 1.10294C386.803 1.17094 386.619 1.29794 386.428 1.30194C382.659 1.36194 378.89 1.44394 375.114 1.45194C365.34 1.46994 355.572 1.46194 345.798 1.44394C344.489 1.43994 343.174 1.31694 341.865 1.22394C341.687 1.21194 341.371 1.04794 341.398 0.991941C341.483 0.770941 341.615 0.411941 341.858 0.374941C342.904 0.206941 343.996 0.0449407 345.075 0.0419407C351.073 0.0119407 357.065 0.0269407 363.064 0.0269407C363.077 0.0159407 363.077 0.00794067 363.077 0.000940669V-5.9331e-05ZM475.298 5.70094C475.64 5.83594 476.12 5.92894 476.278 6.11294C476.356 6.21372 476.391 6.34074 476.376 6.46699C476.361 6.59323 476.298 6.70874 476.199 6.78894C475.509 7.32394 474.502 7.47294 473.358 7.20794C473.082 7.14394 472.772 6.78494 472.851 6.62094C473.174 5.97794 474.094 5.66794 475.298 5.70094ZM488.447 6.69194C487.953 6.63594 487.322 6.59094 486.73 6.48194C486.25 6.39194 486.118 6.16194 486.368 5.94094C486.46 5.85794 486.724 5.78694 486.895 5.79494C487.519 5.81947 488.142 5.86683 488.762 5.93694C489.756 6.05294 490.341 6.41494 489.782 6.51994C489.394 6.59494 488.98 6.62494 488.447 6.69194ZM396.814 0.370941C397.439 0.336941 397.998 0.247941 398.511 0.303941C398.728 0.325941 399.077 0.710941 398.978 0.818941C398.656 1.17094 397.998 1.20894 397.445 1.02094C397.176 0.927941 397.084 0.662941 396.814 0.370941ZM465.872 6.78194C465.642 6.58394 465.313 6.40394 465.215 6.18694C465.171 6.08095 465.164 5.9633 465.195 5.85288C465.226 5.74245 465.294 5.64563 465.386 5.57794C465.728 5.33794 466.76 5.45094 466.99 5.76494C467.122 5.93694 467.05 6.23194 466.852 6.38194C466.629 6.55394 466.168 6.63194 465.813 6.74794L465.872 6.78194ZM356.283 2.77794C356.429 2.6608 356.606 2.58801 356.793 2.56816C356.979 2.54832 357.167 2.58224 357.335 2.66594C357.454 2.72194 357.526 2.90894 357.447 2.97994C357.184 3.22994 356.783 3.27494 356.414 3.09994C356.296 3.04394 356.322 2.88694 356.283 2.77794ZM475.331 1.29794C475.134 1.27894 474.818 1.29394 474.752 1.23094C474.496 0.972941 474.719 0.830941 475.318 0.890941C475.489 0.904941 475.627 1.02094 475.778 1.08894C475.627 1.15594 475.482 1.22694 475.331 1.29794ZM443.949 1.16294L443.535 1.08094L443.87 0.953941L443.949 1.16394V1.16294ZM482.501 1.23394L482.264 1.02094L482.744 1.02494L482.501 1.23494V1.23394ZM378.173 2.57594L378.601 2.50194L378.541 2.70294L378.173 2.57594Z" fill="#2E68FD"/>
</g>
</g>
<defs>
<clipPath id="clip0_4_2862">
<rect width="490" height="12" fill="white"/>
</clipPath>
<clipPath id="clip1_4_2862">
<rect width="490" height="12" fill="white"/>
</clipPath>
</defs>
</svg>
