<svg width="57" height="52" viewBox="0 0 57 52" fill="none" xmlns="http://www.w3.org/2000/svg">
<path d="M34.4871 18.1068C31.916 16.5773 28.2597 17.1861 26.3366 19.4639C24.4133 21.7418 24.9404 24.8391 27.5115 26.3686C30.0826 27.8981 33.7388 27.2893 35.662 25.0115C37.5852 22.7336 37.0581 19.6362 34.4871 18.1068ZM28.508 25.1884C26.6712 24.0958 26.2945 21.883 27.6681 20.2561C29.0418 18.6292 31.6538 18.1943 33.4906 19.287C35.3273 20.3796 35.7041 22.5924 34.3304 24.2193C32.9568 25.8462 30.3447 26.2811 28.508 25.1884Z" fill="black"/>
<path d="M36.0346 30.4256C36.1424 30.3013 36.2567 30.1818 36.3627 30.0561C42.0262 23.3455 44.5535 15.4972 43.2965 8.52358C43.2635 8.34204 43.1477 8.18248 42.9741 8.07916C42.8005 7.97584 42.5829 7.937 42.368 7.97098C34.1159 9.2856 26.1351 13.8884 20.4716 20.599C20.3655 20.7246 20.2691 20.8547 20.1651 20.9814C15.7325 20.5547 10.2948 23.2286 6.44211 27.7937C6.31069 27.9494 6.25441 28.1402 6.28565 28.3242C6.31689 28.5082 6.4331 28.6703 6.6087 28.7748L14.327 33.3681C14.3277 33.3686 14.3282 33.3693 14.329 33.3697L14.6971 33.5888L11.5886 34.8092C11.4531 34.8624 11.3347 34.9447 11.2455 35.0478C11.1563 35.1508 11.0996 35.2709 11.0811 35.3957C11.0625 35.5205 11.0827 35.6455 11.1398 35.7581C11.1968 35.8707 11.2886 35.9667 11.4058 36.0364L22.0021 42.3425C22.1192 42.4122 22.2576 42.4532 22.403 42.4611C22.5483 42.469 22.6956 42.4436 22.8296 42.3875C22.9637 42.3315 23.0798 42.2467 23.166 42.1419C23.2523 42.0372 23.3055 41.9161 23.3204 41.7911L23.6615 38.9237L24.0488 39.1542C24.0496 39.1547 24.0505 39.1548 24.0513 39.1553L31.7696 43.7486C31.9452 43.8531 32.1658 43.8915 32.3829 43.8552C32.6 43.819 32.7958 43.7112 32.9272 43.5555C36.7799 38.9906 37.9827 33.7963 36.0346 30.4256ZM41.7727 9.50274C42.0737 11.6361 41.9994 13.8503 41.5859 16.0819L34.4423 11.8306C36.8128 10.7635 39.2761 9.97104 41.7727 9.50274ZM8.27486 28.0024C11.4262 24.5491 15.6314 22.3757 19.0958 22.3499C16.9239 25.2785 15.3019 28.4281 14.3288 31.6052L8.27486 28.0024ZM13.5665 35.5583L16.2417 34.508L22.1168 38.0045L21.8234 40.4721L13.5665 35.5583ZM24.607 37.7223L15.753 32.4532C16.8281 28.6224 18.9108 24.8056 21.7959 21.3871C24.8761 17.7375 28.6682 14.7507 32.8059 12.6207L41.2403 17.6402C40.2182 21.6243 38.1186 25.6184 35.0384 29.268C32.1533 32.6866 28.555 35.6014 24.607 37.7223ZM26.0316 38.5698C29.2789 36.7461 32.2804 34.4174 34.8514 31.7263C35.9701 34.4797 34.9214 38.5316 32.0855 42.1726L26.0316 38.5698ZM16.2152 39.7855C16.1283 39.7338 16.0294 39.6977 15.9242 39.6794C15.8189 39.6611 15.7094 39.6609 15.6019 39.6788C15.4944 39.6968 15.3911 39.7325 15.2977 39.7839C15.2043 39.8353 15.1227 39.9015 15.0576 39.9786L13.076 42.3266C12.9446 42.4823 12.8883 42.6732 12.9195 42.8572C12.9508 43.0412 13.067 43.2033 13.2426 43.3078C13.4182 43.4123 13.6388 43.4506 13.8559 43.4144C14.073 43.3782 14.2688 43.2704 14.4002 43.1147L16.3818 40.7667C16.4469 40.6896 16.4942 40.6031 16.521 40.512C16.5479 40.421 16.5538 40.3272 16.5383 40.2361C16.5228 40.145 16.4863 40.0583 16.4309 39.981C16.3755 39.9037 16.3022 39.8372 16.2152 39.7855ZM12.9011 37.8132C12.8141 37.7614 12.7152 37.7254 12.61 37.7071C12.5048 37.6888 12.3953 37.6886 12.2878 37.7065C12.1803 37.7244 12.0769 37.7601 11.9835 37.8116C11.8901 37.863 11.8086 37.9292 11.7435 38.0063L10.7534 39.1794C10.622 39.3351 10.5657 39.526 10.5969 39.71C10.6282 39.894 10.7444 40.0561 10.92 40.1606C11.0956 40.2651 11.3162 40.3034 11.5333 40.2672C11.7504 40.231 11.9462 40.1232 12.0776 39.9675L13.0677 38.7943C13.1991 38.6386 13.2553 38.4478 13.2241 38.2638C13.1929 38.0798 13.0767 37.9177 12.9011 37.8132ZM19.5295 41.7579C19.4425 41.7061 19.3436 41.6701 19.2384 41.6518C19.1332 41.6335 19.0237 41.6333 18.9162 41.6512C18.8087 41.6691 18.7053 41.7048 18.6119 41.7563C18.5185 41.8077 18.4369 41.8739 18.3719 41.951L17.3818 43.1241C17.2504 43.2798 17.1941 43.4707 17.2253 43.6547C17.2566 43.8387 17.3728 44.0008 17.5484 44.1053C17.724 44.2098 17.9446 44.2481 18.1617 44.2119C18.3788 44.1757 18.5746 44.0679 18.706 43.9122L19.6961 42.739C19.8275 42.5833 19.8837 42.3925 19.8525 42.2085C19.8212 42.0245 19.7051 41.8624 19.5295 41.7579Z" fill="black"/>
</svg>
