<svg width="49" height="49" viewBox="0 0 49 49" fill="none" xmlns="http://www.w3.org/2000/svg">
<path d="M13.6983 24.0823H9.4857C9.0675 24.0823 8.7207 23.7355 8.7207 23.3173V10.8631C8.7207 10.4449 9.0675 10.0981 9.4857 10.0981H13.6983C14.1165 10.0981 14.4633 10.4449 14.4633 10.8631V23.3275C14.4633 23.7457 14.1165 24.0823 13.6983 24.0823ZM10.2507 22.5523H12.9333V11.6281H10.2507V22.5523ZM20.2977 24.0823H16.0851C15.6669 24.0823 15.3201 23.7355 15.3201 23.3173V15.4123C15.3201 14.9941 15.6669 14.6473 16.0851 14.6473H20.2977C20.7159 14.6473 21.0627 14.9941 21.0627 15.4123V23.3173C21.0627 23.7457 20.7261 24.0823 20.2977 24.0823ZM16.8501 22.5523H19.5327V16.1773H16.8501V22.5523ZM26.8971 24.0823H22.6845C22.2663 24.0823 21.9195 23.7355 21.9195 23.3173V10.8631C21.9195 10.4449 22.2663 10.0981 22.6845 10.0981H26.8971C27.3153 10.0981 27.6621 10.4449 27.6621 10.8631V23.3275C27.6621 23.7457 27.3255 24.0823 26.8971 24.0823ZM23.4597 22.5523H26.1423V11.6281H23.4597V22.5523ZM33.5067 24.0823H29.2941C28.8759 24.0823 28.5291 23.7355 28.5291 23.3173V15.4123C28.5291 14.9941 28.8759 14.6473 29.2941 14.6473H33.5067C33.9249 14.6473 34.2717 14.9941 34.2717 15.4123V23.3173C34.2717 23.7457 33.9249 24.0823 33.5067 24.0823ZM30.0591 22.5523H32.7417V16.1773H30.0591V22.5523ZM11.5461 9.29226C10.3323 9.29226 9.3429 8.30286 9.3429 7.08906C9.3429 5.87526 10.3323 4.88586 11.5461 4.88586C12.7599 4.88586 13.7493 5.87526 13.7493 7.08906C13.7493 8.30286 12.7599 9.29226 11.5461 9.29226ZM11.5461 6.42606C11.1789 6.42606 10.8729 6.72186 10.8729 7.09926C10.8729 7.47666 11.1687 7.77246 11.5461 7.77246C11.9133 7.77246 12.2193 7.47666 12.2193 7.09926C12.2193 6.72186 11.9235 6.42606 11.5461 6.42606ZM18.1965 12.5767C16.9827 12.5767 15.9933 11.5873 15.9933 10.3735C15.9933 9.15966 16.9827 8.17026 18.1965 8.17026C19.4103 8.17026 20.3997 9.15966 20.3997 10.3735C20.397 10.957 20.164 11.5158 19.7514 11.9284C19.3388 12.341 18.78 12.574 18.1965 12.5767ZM18.1965 9.71046C18.018 9.71046 17.8467 9.78139 17.7205 9.90764C17.5942 10.0339 17.5233 10.2051 17.5233 10.3837C17.5233 10.5622 17.5942 10.7334 17.7205 10.8597C17.8467 10.9859 18.018 11.0569 18.1965 11.0569C18.5739 11.0569 18.8697 10.7611 18.8697 10.3837C18.8681 10.2056 18.7967 10.0353 18.6708 9.9094C18.5449 9.7835 18.3746 9.71206 18.1965 9.71046ZM24.7959 7.37466C23.5821 7.37466 22.5927 6.38526 22.5927 5.17146C22.5927 3.95766 23.5821 2.96826 24.7959 2.96826C26.0097 2.96826 26.9991 3.95766 26.9991 5.17146C26.9991 6.39546 26.0097 7.37466 24.7959 7.37466ZM24.7959 4.50846C24.7054 4.50487 24.615 4.51959 24.5303 4.55174C24.4456 4.58389 24.3682 4.63282 24.3029 4.69558C24.2375 4.75834 24.1855 4.83365 24.15 4.917C24.1144 5.00035 24.0961 5.09001 24.096 5.18062C24.0959 5.27123 24.1142 5.36092 24.1496 5.44432C24.185 5.52772 24.2369 5.60311 24.3022 5.66597C24.3674 5.72884 24.4447 5.77788 24.5294 5.81016C24.614 5.84244 24.7043 5.8573 24.7949 5.85384C24.9688 5.8472 25.1333 5.77349 25.254 5.64817C25.3748 5.52285 25.4423 5.35565 25.4424 5.18164C25.4425 5.00763 25.3753 4.84033 25.2547 4.71483C25.1342 4.58932 24.9698 4.51536 24.7959 4.50846ZM31.3953 13.3417C30.1815 13.3417 29.1921 12.3523 29.1921 11.1385C29.1921 9.92466 30.1815 8.93526 31.3953 8.93526C32.6091 8.93526 33.5985 9.92466 33.5985 11.1385C33.5985 12.3523 32.6091 13.3417 31.3953 13.3417ZM31.3953 10.4755C31.0281 10.4755 30.7221 10.7713 30.7221 11.1487C30.7221 11.5261 31.0179 11.8219 31.3953 11.8219C31.7727 11.8219 32.0685 11.5261 32.0685 11.1487C32.0685 10.7713 31.7727 10.4755 31.3953 10.4755Z" fill="#3C3C3D"/>
<path d="M16.7582 10.3632C16.646 10.3632 16.5338 10.3428 16.4318 10.2918L12.4946 8.43542C12.1172 8.25182 11.9438 7.80302 12.1274 7.41542C12.311 7.02782 12.7598 6.87482 13.1474 7.04822L17.0846 8.90462C17.462 9.08822 17.6354 9.53702 17.4518 9.92462C17.3192 10.2 17.0438 10.3632 16.7582 10.3632ZM19.4 10.3632C19.1858 10.3632 18.9716 10.2714 18.8186 10.098C18.6874 9.94323 18.6224 9.74302 18.6377 9.54069C18.6529 9.33836 18.7472 9.15017 18.9002 9.01682L23.1128 5.39582C23.429 5.12042 23.9186 5.16122 24.194 5.47742C24.4694 5.79362 24.4286 6.28322 24.1124 6.55862L19.8998 10.1796C19.7468 10.302 19.5734 10.3632 19.4 10.3632ZM30.5894 10.7202C30.416 10.7202 30.2324 10.659 30.0896 10.5366L25.4792 6.56882C25.326 6.43562 25.2315 6.24739 25.2163 6.04498C25.201 5.84257 25.2661 5.6423 25.3976 5.48762C25.673 5.17142 26.1524 5.13062 26.4788 5.40602L31.0892 9.37382C31.4054 9.64922 31.4462 10.1286 31.1708 10.455C31.0178 10.6284 30.8036 10.7202 30.5894 10.7202Z" fill="#3C3C3D"/>
<path d="M3.74352 40.4634C3.32532 40.4634 2.97852 40.1166 2.97852 39.6984V4.4064C2.97852 1.9788 4.93691 0 7.33391 0H44.2681C44.6863 0 45.0331 0.3468 45.0331 0.765C45.0331 1.1832 44.6863 1.53 44.2681 1.53H7.33391C5.77331 1.53 4.50852 2.8254 4.50852 4.4064V39.7086C4.50852 40.1268 4.16172 40.4634 3.74352 40.4634Z" fill="#3C3C3D"/>
<path d="M36.6384 48.44H4.692C2.1012 48.44 0 46.3082 0 43.6868V39.6986C0 39.2804 0.3468 38.9336 0.765 38.9336H32.7114C33.1296 38.9336 33.4764 39.2804 33.4764 39.6986V43.6868C33.4764 44.105 33.1296 44.4518 32.7114 44.4518C32.2932 44.4518 31.9464 44.105 31.9464 43.6868V40.4636H1.53V43.6868C1.53 45.4616 2.9478 46.91 4.692 46.91H36.6384C36.8413 46.91 37.0359 46.9906 37.1793 47.1341C37.3228 47.2775 37.4034 47.4721 37.4034 47.675C37.4034 47.8779 37.3228 48.0725 37.1793 48.2159C37.0359 48.3594 36.8413 48.44 36.6384 48.44Z" fill="#3C3C3D"/>
<path d="M36.6383 48.4398C35.3939 48.4398 34.1801 47.9298 33.3131 47.0322C32.4335 46.1414 31.9421 44.9386 31.9463 43.6866V39.6984C31.9463 39.2802 32.2931 38.9334 32.7113 38.9334C33.1295 38.9334 33.4763 39.2802 33.4763 39.6984V43.6866C33.4763 44.5434 33.8027 45.3594 34.4045 45.9612C34.9961 46.5732 35.7917 46.8996 36.6383 46.8996C38.3825 46.8996 39.8003 45.4512 39.8003 43.6764V41.2386L39.5759 4.75323C39.5759 4.33503 39.9125 3.98823 40.3307 3.97803H40.3409C40.7591 3.97803 41.1059 4.31463 41.1059 4.73283L41.3303 43.6764C41.3303 46.308 39.2291 48.4398 36.6383 48.4398Z" fill="#3C3C3D"/>
<path d="M48.195 9.4962H40.5654C40.1472 9.4962 39.8004 9.1494 39.8004 8.7312C39.8004 8.313 40.1472 7.9662 40.5654 7.9662H47.43V4.743C47.43 2.9682 46.0122 1.53 44.268 1.53C42.5238 1.53 41.106 2.9784 41.106 4.743C41.106 5.1612 40.7592 5.508 40.341 5.508C39.9228 5.508 39.576 5.1612 39.576 4.743C39.576 2.1216 41.6772 0 44.268 0C46.8588 0 48.96 2.1216 48.96 4.743V8.7312C48.96 9.1494 48.6132 9.4962 48.195 9.4962ZM31.3956 37.689C27.9888 37.689 25.2246 34.9248 25.2246 31.518C25.2246 28.1112 27.9888 25.347 31.3956 25.347C34.8024 25.347 37.5666 28.1112 37.5666 31.518C37.5666 34.9248 34.8024 37.689 31.3956 37.689ZM31.3956 26.8668C28.8354 26.8668 26.7546 28.9476 26.7546 31.5078C26.7546 34.068 28.8354 36.1488 31.3956 36.1488C33.9558 36.1488 36.0366 34.068 36.0366 31.5078C36.0366 28.9578 33.9558 26.8668 31.3956 26.8668Z" fill="#3C3C3D"/>
<path d="M31.3954 35.3123C30.8958 35.3123 30.4011 35.2139 29.9395 35.0227C29.4779 34.8315 29.0585 34.5513 28.7052 34.198C28.3519 33.8447 28.0716 33.4253 27.8804 32.9637C27.6892 32.5021 27.5908 32.0074 27.5908 31.5077C27.5908 31.0081 27.6892 30.5134 27.8804 30.0518C28.0716 29.5902 28.3519 29.1708 28.7052 28.8175C29.0585 28.4642 29.4779 28.1839 29.9395 27.9927C30.4011 27.8015 30.8958 27.7031 31.3954 27.7031C32.4045 27.7031 33.3722 28.104 34.0857 28.8175C34.7992 29.531 35.2 30.4987 35.2 31.5077C35.2 32.5168 34.7992 33.4845 34.0857 34.198C33.3722 34.9115 32.4045 35.3123 31.3954 35.3123ZM31.3954 29.2433C30.1408 29.2433 29.1208 30.2633 29.1208 31.5179C29.1208 32.7725 30.1408 33.7925 31.3954 33.7925C32.65 33.7925 33.67 32.7725 33.67 31.5179C33.67 30.2633 32.65 29.2433 31.3954 29.2433Z" fill="#3C3C3D"/>
<path d="M32.1297 29.3353C32.0787 29.3353 32.0175 29.3353 31.9665 29.3149C31.7695 29.2697 31.5978 29.1498 31.4874 28.9804C31.3771 28.8111 31.3367 28.6056 31.3749 28.4071L31.8747 26.0917C31.9665 25.6735 32.3745 25.4083 32.7825 25.5001C33.1905 25.5919 33.4557 25.9999 33.3741 26.4079L32.8743 28.7233C32.7927 29.0905 32.4765 29.3353 32.1297 29.3353ZM34.8633 36.4243C34.6389 36.4243 34.4247 36.3325 34.2717 36.1387L32.7723 34.3027C32.6454 34.1438 32.5861 33.9414 32.6071 33.7391C32.6281 33.5369 32.7277 33.351 32.8845 33.2215C33.2109 32.9563 33.6903 33.0073 33.9555 33.3337L35.4549 35.1697C35.7201 35.4961 35.6691 35.9755 35.3427 36.2509C35.2101 36.3733 35.0367 36.4243 34.8633 36.4243ZM27.5601 36.0877C27.4099 36.088 27.263 36.0438 27.1379 35.9606C27.0128 35.8774 26.9152 35.7591 26.8573 35.6205C26.7995 35.4818 26.784 35.3292 26.8129 35.1818C26.8417 35.0344 26.9136 34.8989 27.0195 34.7923L28.6719 33.0889C28.9677 32.7931 29.4471 32.7829 29.7531 33.0787C30.0591 33.3745 30.0591 33.8539 29.7633 34.1599L28.1109 35.8633C27.9626 36.0056 27.7656 36.0859 27.5601 36.0877ZM18.2577 29.0497H7.26207C6.84387 29.0497 6.49707 28.7029 6.49707 28.2847C6.49707 27.8665 6.84387 27.5197 7.26207 27.5197H18.2577C18.4606 27.5197 18.6551 27.6003 18.7986 27.7438C18.9421 27.8872 19.0227 28.0818 19.0227 28.2847C19.0227 28.4876 18.9421 28.6822 18.7986 28.8256C18.6551 28.9691 18.4606 29.0497 18.2577 29.0497ZM22.7559 29.0497H20.2365C19.8183 29.0497 19.4715 28.7029 19.4715 28.2847C19.4715 27.8665 19.8183 27.5197 20.2365 27.5197H22.7559C23.1741 27.5197 23.5209 27.8665 23.5209 28.2847C23.5209 28.7029 23.1741 29.0497 22.7559 29.0497ZM22.7559 31.7323H11.7603C11.3421 31.7323 10.9953 31.3855 10.9953 30.9673C10.9953 30.5491 11.3421 30.2023 11.7603 30.2023H22.7559C23.1741 30.2023 23.5209 30.5491 23.5209 30.9673C23.5209 31.3855 23.1741 31.7323 22.7559 31.7323ZM9.78147 31.7323H7.26207C6.84387 31.7323 6.49707 31.3855 6.49707 30.9673C6.49707 30.5491 6.84387 30.2023 7.26207 30.2023H9.78147C10.1997 30.2023 10.5465 30.5491 10.5465 30.9673C10.5465 31.3855 10.1997 31.7323 9.78147 31.7323ZM22.7559 34.3129H11.7603C11.3421 34.3129 10.9953 33.9661 10.9953 33.5479C10.9953 33.1297 11.3421 32.7829 11.7603 32.7829H22.7559C23.1741 32.7829 23.5209 33.1297 23.5209 33.5479C23.5209 33.9661 23.1741 34.3129 22.7559 34.3129ZM9.78147 34.3129H7.26207C6.84387 34.3129 6.49707 33.9661 6.49707 33.5479C6.49707 33.1297 6.84387 32.7829 7.26207 32.7829H9.78147C10.1997 32.7829 10.5465 33.1297 10.5465 33.5479C10.5465 33.9661 10.1997 34.3129 9.78147 34.3129ZM18.2577 36.9955H7.26207C6.84387 36.9955 6.49707 36.6487 6.49707 36.2305C6.49707 35.8123 6.84387 35.4655 7.26207 35.4655H18.2577C18.4606 35.4655 18.6551 35.5461 18.7986 35.6896C18.9421 35.833 19.0227 36.0276 19.0227 36.2305C19.0227 36.4334 18.9421 36.628 18.7986 36.7714C18.6551 36.9149 18.4606 36.9955 18.2577 36.9955ZM22.7559 36.9955H20.2365C19.8183 36.9955 19.4715 36.6487 19.4715 36.2305C19.4715 35.8123 19.8183 35.4655 20.2365 35.4655H22.7559C23.1741 35.4655 23.5209 35.8123 23.5209 36.2305C23.5209 36.6487 23.1741 36.9955 22.7559 36.9955Z" fill="#3C3C3D"/>
</svg>
