<svg width="48" height="48" viewBox="0 0 48 48" fill="none" xmlns="http://www.w3.org/2000/svg">
<g clip-path="url(#clip0_4_2750)">
<g clip-path="url(#clip1_4_2750)">
<g clip-path="url(#clip2_4_2750)">
<mask id="mask0_4_2750" style="mask-type:luminance" maskUnits="userSpaceOnUse" x="0" y="0" width="48" height="48">
<path d="M0 0H48V48H0V0Z" fill="white"/>
</mask>
<g mask="url(#mask0_4_2750)">
<path d="M43.4995 6.75044H32.1254L32.6238 5.75167C32.6942 5.61086 32.7185 5.45149 32.6934 5.29611C32.6682 5.14073 32.5948 4.99719 32.4835 4.88582L30.3632 2.76551C30.2519 2.65427 30.1083 2.58087 29.9529 2.55569C29.7976 2.53051 29.6382 2.55483 29.4974 2.6252L28.1755 3.28613C27.6969 3.03503 27.1963 2.82802 26.6802 2.66767L26.2112 1.26459C26.1618 1.11484 26.0664 0.984487 25.9386 0.892026C25.8109 0.799566 25.6572 0.749701 25.4995 0.749512H22.4995C22.3421 0.749572 22.1886 0.799168 22.0609 0.891278C21.9331 0.983387 21.8376 1.11334 21.7878 1.26274L21.3198 2.66582C20.802 2.82653 20.2999 3.03416 19.8198 3.28613L18.5017 2.6252C18.3608 2.55494 18.2014 2.53078 18.046 2.55612C17.8906 2.58147 17.7471 2.65504 17.6358 2.76643L15.5146 4.88582C15.4034 4.99719 15.33 5.14073 15.3048 5.29611C15.2796 5.45149 15.3039 5.61086 15.3743 5.75167L15.8728 6.75044H4.50046C3.50624 6.75141 2.553 7.14674 1.84989 7.84967C1.14678 8.55261 0.751222 9.50575 0.75 10.5V37.5C0.751221 38.4943 1.14675 39.4475 1.84983 40.1506C2.55292 40.8537 3.50615 41.2492 4.50046 41.2504H18.5995L14.4374 46.0061C14.3426 46.1144 14.2809 46.2476 14.2598 46.3899C14.2387 46.5323 14.259 46.6777 14.3183 46.8088C14.3775 46.9399 14.4733 47.0511 14.5941 47.1293C14.7149 47.2075 14.8557 47.2492 14.9995 47.2495H32.9995C33.1434 47.2492 33.2841 47.2074 33.405 47.1294C33.5258 47.0513 33.6217 46.9401 33.6811 46.8091C33.7405 46.678 33.7611 46.5327 33.7402 46.3903C33.7194 46.248 33.658 46.1146 33.5635 46.0061L29.3995 41.2495H43.4995C44.4938 41.2485 45.447 40.8532 46.1501 40.1503C46.8532 39.4473 47.2488 38.4942 47.25 37.5V10.5C47.249 9.50559 46.8536 8.55221 46.1504 7.84908C45.4473 7.14594 44.4939 6.75049 43.4995 6.74951V6.75044ZM16.7534 9.34705C16.9251 8.68982 17.1872 8.05936 17.5288 7.47228C17.592 7.36466 17.6274 7.24296 17.6318 7.11821C17.6361 6.99345 17.6093 6.86959 17.5537 6.75782L16.9537 5.56613L18.3134 4.20736L19.506 4.80736C19.6177 4.86309 19.7415 4.89008 19.8663 4.88589C19.991 4.8817 20.1128 4.84646 20.2205 4.78336C20.807 4.44045 21.4378 4.17956 22.0952 4.00797C22.2166 3.97696 22.3283 3.91602 22.42 3.83071C22.5118 3.74541 22.5807 3.63847 22.6205 3.51967L23.0405 2.24951H24.9586L25.3814 3.51597C25.4211 3.63463 25.4899 3.74145 25.5815 3.82674C25.6731 3.91202 25.7845 3.97305 25.9057 4.00428C26.5634 4.17578 27.1945 4.43667 27.7814 4.77967C27.889 4.84261 28.0105 4.87776 28.1351 4.88195C28.2597 4.88614 28.3834 4.85924 28.4949 4.80367L29.6875 4.20736L31.0417 5.56428L30.4417 6.7569C30.386 6.86842 30.359 6.9921 30.3632 7.11671C30.3673 7.24132 30.4026 7.36291 30.4657 7.47044C30.8091 8.05751 31.0703 8.6889 31.242 9.34613C31.2732 9.46744 31.3344 9.57899 31.4198 9.67058C31.5053 9.76218 31.6124 9.83089 31.7312 9.87043L32.9995 10.2904V12.2095L31.7349 12.6314C31.616 12.6711 31.5089 12.7399 31.4234 12.8317C31.338 12.9234 31.2769 13.0351 31.2457 13.1566C31.0737 13.8139 30.8129 14.4446 30.4703 15.0314C30.4071 15.139 30.3717 15.2607 30.3673 15.3854C30.363 15.5102 30.3898 15.6341 30.4454 15.7458L31.0454 16.9375L29.6857 18.2926L28.4931 17.6926C28.3815 17.6364 28.2576 17.6091 28.1328 17.6133C28.0079 17.6175 27.8861 17.653 27.7786 17.7166C27.192 18.0595 26.5613 18.3204 25.9038 18.492C25.7825 18.523 25.6708 18.5839 25.579 18.6692C25.4873 18.7545 25.4184 18.8615 25.3786 18.9803L24.9586 20.2495H23.0405L22.6177 18.984C22.5779 18.8653 22.5091 18.7585 22.4176 18.6732C22.326 18.5879 22.2146 18.5269 22.0934 18.4957C21.4356 18.3242 20.8045 18.0633 20.2177 17.7203C20.1102 17.657 19.9886 17.6217 19.864 17.6175C19.7393 17.6133 19.6156 17.6404 19.5042 17.6963L18.3115 18.2963L16.9574 16.9357L17.5574 15.7431C17.6131 15.6315 17.6401 15.5078 17.6359 15.3832C17.6317 15.2586 17.5965 15.137 17.5334 15.0295C17.1905 14.4425 16.9293 13.8115 16.7571 13.1538C16.7258 13.0325 16.6647 12.921 16.5792 12.8294C16.4938 12.7378 16.3867 12.6691 16.2678 12.6295L14.9995 12.2095V10.2904L16.2642 9.86859C16.3826 9.82915 16.4894 9.76081 16.5748 9.66975C16.6602 9.57869 16.7216 9.46778 16.7534 9.34705ZM33.9872 13.4612C34.1363 13.4113 34.266 13.3159 34.3579 13.1883C34.4498 13.0608 34.4994 12.9076 34.4995 12.7504V11.2495H41.9995C42.0981 11.2494 42.1958 11.2687 42.2869 11.3064C42.378 11.3441 42.4608 11.3993 42.5305 11.469C42.6002 11.5388 42.6554 11.6215 42.6931 11.7126C42.7308 11.8037 42.7501 11.9014 42.75 12V33C42.7501 33.0986 42.7308 33.1962 42.6931 33.2873C42.6554 33.3784 42.6002 33.4612 42.5305 33.5309C42.4608 33.6006 42.378 33.6559 42.2869 33.6936C42.1958 33.7312 42.0981 33.7506 41.9995 33.7504H5.99954C5.90095 33.7506 5.80331 33.7312 5.71221 33.6936C5.6211 33.6559 5.53832 33.6006 5.46861 33.5309C5.3989 33.4612 5.34363 33.3784 5.30595 33.2873C5.26828 33.1962 5.24896 33.0986 5.24908 33V12C5.24896 11.9014 5.26828 11.8037 5.30595 11.7126C5.34363 11.6215 5.3989 11.5388 5.46861 11.469C5.53832 11.3993 5.6211 11.3441 5.71221 11.3064C5.80331 11.2687 5.90095 11.2494 5.99954 11.2495H13.4995V12.7504C13.4997 12.9078 13.5493 13.0611 13.6414 13.1887C13.7335 13.3163 13.8634 13.4116 14.0128 13.4612L15.4158 13.9292C15.45 14.0381 15.4906 14.1424 15.5322 14.2504H8.99954C8.90103 14.2503 8.80346 14.2696 8.71242 14.3072C8.62138 14.3448 8.53864 14.4 8.46894 14.4696C8.39924 14.5393 8.34395 14.6219 8.30622 14.7129C8.2685 14.8039 8.24908 14.9015 8.24908 15V18.888C7.74862 19.065 7.32684 19.4132 7.05829 19.8711C6.78974 20.329 6.69171 20.8671 6.78151 21.3903C6.87132 21.9135 7.14318 22.3881 7.54906 22.7303C7.95493 23.0724 8.46869 23.2601 8.99954 23.2601C9.53039 23.2601 10.0441 23.0724 10.45 22.7303C10.8559 22.3881 11.1278 21.9135 11.2176 21.3903C11.3074 20.8671 11.2093 20.329 10.9408 19.8711C10.6722 19.4132 10.2505 19.065 9.75 18.888V15.7495H15.8737L15.3752 16.7483C15.3049 16.8891 15.2805 17.0485 15.3057 17.2038C15.3309 17.3592 15.4043 17.5028 15.5155 17.6141L16.4995 18.6V21.4403L15.2192 22.7206C15.0789 22.8609 14.9999 23.0511 14.9995 23.2495V25.6375C14.499 25.8144 14.0771 26.1626 13.8085 26.6205C13.5398 27.0784 13.4417 27.6166 13.5315 28.1398C13.6212 28.663 13.8931 29.1377 14.299 29.4799C14.7049 29.8221 15.2187 30.0098 15.7495 30.0098C16.2804 30.0098 16.7942 29.8221 17.2001 29.4799C17.606 29.1377 17.8778 28.663 17.9676 28.1398C18.0574 27.6166 17.9592 27.0784 17.6906 26.6205C17.422 26.1626 17.0001 25.8144 16.4995 25.6375V23.5606L17.7798 22.2803C17.8496 22.2106 17.9049 22.1279 17.9426 22.0368C17.9803 21.9457 17.9996 21.8481 17.9995 21.7495V19.931C18.1682 19.9721 18.346 19.9525 18.5017 19.8757L19.8235 19.2138C20.3036 19.4659 20.8057 19.6735 21.3235 19.8341L21.7915 21.2372C21.8413 21.3858 21.9363 21.5152 22.0633 21.607C22.1903 21.6989 22.3428 21.7487 22.4995 21.7495H23.25V24.1375C22.7495 24.3144 22.3276 24.6626 22.0589 25.1205C21.7903 25.5784 21.6922 26.1166 21.7819 26.6398C21.8717 27.163 22.1435 27.6377 22.5494 27.9799C22.9553 28.3221 23.4691 28.5098 24 28.5098C24.5309 28.5098 25.0447 28.3221 25.4506 27.9799C25.8565 27.6377 26.1283 27.163 26.2181 26.6398C26.3078 26.1166 26.2097 25.5784 25.9411 25.1205C25.6724 24.6626 25.2505 24.3144 24.75 24.1375V21.7495H25.4995C25.6569 21.7495 25.8103 21.7001 25.938 21.6081C26.0657 21.5162 26.1613 21.3864 26.2112 21.2372L26.6792 19.8341C27.1958 19.6732 27.6966 19.4656 28.1755 19.2138L29.4974 19.8757C29.6543 19.9523 29.8306 19.9717 29.9995 19.931V21.7495C29.9995 21.9489 30.0789 22.14 30.2192 22.2803L31.4995 23.5606V25.6375C30.999 25.8144 30.5771 26.1626 30.3085 26.6205C30.0398 27.0784 29.9417 27.6166 30.0315 28.1398C30.1212 28.663 30.3931 29.1377 30.799 29.4799C31.2049 29.8221 31.7187 30.0098 32.2495 30.0098C32.7804 30.0098 33.2942 29.8221 33.7001 29.4799C34.106 29.1377 34.3778 28.663 34.4676 28.1398C34.5574 27.6166 34.4592 27.0784 34.1906 26.6205C33.922 26.1626 33.5001 25.8144 32.9995 25.6375V23.2495C32.9995 23.0508 32.9204 22.8602 32.7798 22.7197L31.4995 21.4394V18.6L32.4845 17.6141C32.5957 17.5029 32.6691 17.3596 32.6944 17.2044C32.7198 17.0492 32.6957 16.89 32.6257 16.7492L32.1254 15.7504H38.25V18.888C37.7494 19.0648 37.3274 19.4129 37.0587 19.8708C36.7899 20.3287 36.6917 20.8669 36.7814 21.3902C36.8711 21.9135 37.143 22.3882 37.5489 22.7305C37.9548 23.0727 38.4686 23.2604 38.9995 23.2604C39.5305 23.2604 40.0443 23.0727 40.4502 22.7305C40.8561 22.3882 41.1279 21.9135 41.2176 21.3902C41.3074 20.8669 41.2092 20.3287 40.9404 19.8708C40.6717 19.4129 40.2497 19.0648 39.7491 18.888V15C39.7492 14.9015 39.7299 14.8039 39.6923 14.7129C39.6547 14.6218 39.5995 14.5391 39.5299 14.4694C39.4603 14.3997 39.3776 14.3444 39.2866 14.3067C39.1956 14.2689 39.098 14.2495 38.9995 14.2495H32.4669C32.5057 14.1424 32.55 14.0372 32.5832 13.9292L33.9872 13.4612ZM9.74815 21C9.74815 21.199 9.66909 21.3899 9.52835 21.5306C9.38761 21.6714 9.19673 21.7504 8.99769 21.7504C8.79866 21.7504 8.60778 21.6714 8.46704 21.5306C8.3263 21.3899 8.24723 21.199 8.24723 21C8.24723 20.8008 8.32635 20.6098 8.46717 20.469C8.608 20.3282 8.799 20.2491 8.99815 20.2491C9.19731 20.2491 9.38831 20.3282 9.52914 20.469C9.66996 20.6098 9.74908 20.8008 9.74908 21H9.74815ZM16.4986 27.7504C16.4986 27.9495 16.4195 28.1404 16.2788 28.2811C16.1381 28.4218 15.9472 28.5009 15.7482 28.5009C15.5491 28.5009 15.3582 28.4218 15.2175 28.2811C15.0768 28.1404 14.9977 27.9495 14.9977 27.7504C14.9977 27.5514 15.0768 27.3605 15.2175 27.2198C15.3582 27.079 15.5491 27 15.7482 27C15.9472 27 16.1381 27.079 16.2788 27.2198C16.4195 27.3605 16.4986 27.5514 16.4986 27.7504ZM24.7491 26.2504C24.7491 26.4496 24.67 26.6406 24.5291 26.7814C24.3883 26.9222 24.1973 27.0014 23.9982 27.0014C23.799 27.0014 23.608 26.9222 23.4672 26.7814C23.3263 26.6406 23.2472 26.4496 23.2472 26.2504C23.2472 26.0513 23.3263 25.8603 23.4672 25.7195C23.608 25.5786 23.799 25.4995 23.9982 25.4995C24.1973 25.4995 24.3883 25.5786 24.5291 25.7195C24.67 25.8603 24.7491 26.0513 24.7491 26.2504ZM32.9986 27.7504C32.9986 27.849 32.9792 27.9466 32.9415 28.0376C32.9038 28.1287 32.8485 28.2114 32.7788 28.2811C32.7091 28.3508 32.6264 28.4061 32.5353 28.4438C32.4443 28.4815 32.3467 28.5009 32.2482 28.5009C32.1496 28.5009 32.052 28.4815 31.961 28.4438C31.8699 28.4061 31.7872 28.3508 31.7175 28.2811C31.6478 28.2114 31.5925 28.1287 31.5548 28.0376C31.5171 27.9466 31.4977 27.849 31.4977 27.7504C31.4977 27.5514 31.5768 27.3605 31.7175 27.2198C31.8582 27.079 32.0491 27 32.2482 27C32.4472 27 32.6381 27.079 32.7788 27.2198C32.9196 27.3605 32.9986 27.5514 32.9986 27.7504ZM39.7491 21C39.7491 21.1991 39.67 21.3901 39.5291 21.531C39.3883 21.6718 39.1973 21.7509 38.9982 21.7509C38.799 21.7509 38.608 21.6718 38.4672 21.531C38.3263 21.3901 38.2472 21.1991 38.2472 21C38.2472 20.8008 38.3263 20.6098 38.4672 20.469C38.608 20.3282 38.799 20.2491 38.9982 20.2491C39.1973 20.2491 39.3883 20.3282 39.5291 20.469C39.67 20.6098 39.7491 20.8008 39.7491 21ZM31.3491 45.7504H16.6491L20.5851 41.2495H27.4066L31.3482 45.7504H31.3491ZM45.7491 37.5C45.7491 38.0968 45.512 38.6692 45.0899 39.0913C44.6679 39.5133 44.0955 39.7504 43.4986 39.7504H4.49954C4.204 39.7504 3.91136 39.6922 3.63832 39.5791C3.36529 39.466 3.1172 39.3003 2.90822 39.0913C2.69925 38.8823 2.53348 38.6342 2.42038 38.3612C2.30729 38.0882 2.24908 37.7955 2.24908 37.5V10.5C2.24896 10.2044 2.30708 9.91171 2.42014 9.63861C2.53319 9.36552 2.69895 9.11738 2.90795 8.90839C3.11695 8.69939 3.36509 8.53362 3.63818 8.42057C3.91127 8.30752 4.20397 8.24939 4.49954 8.24951H15.5322C15.4934 8.35751 15.4491 8.46182 15.4158 8.57074L14.0128 9.03874C13.8634 9.08835 13.7335 9.1837 13.6414 9.31127C13.5493 9.43884 13.4997 9.59216 13.4995 9.74951H5.99954C5.40268 9.74951 4.83027 9.98661 4.40822 10.4087C3.98618 10.8307 3.74908 11.4031 3.74908 12V33C3.74896 33.2955 3.80708 33.5882 3.92014 33.8613C4.03319 34.1344 4.19895 34.3826 4.40795 34.5916C4.61695 34.8006 4.86509 34.9663 5.13818 35.0794C5.41127 35.1924 5.70397 35.2506 5.99954 35.2504H41.9995C42.2951 35.2504 42.5877 35.1922 42.8608 35.0791C43.1338 34.966 43.3819 34.8003 43.5909 34.5913C43.7998 34.3823 43.9656 34.1342 44.0787 33.8612C44.1918 33.5882 44.25 33.2955 44.25 33V12C44.25 11.4031 44.0129 10.8307 43.5909 10.4087C43.1688 9.98661 42.5964 9.74951 41.9995 9.74951H34.4995C34.4994 9.59216 34.4498 9.43884 34.3577 9.31127C34.2656 9.1837 34.1356 9.08835 33.9863 9.03874L32.5832 8.57074C32.55 8.46182 32.5085 8.35751 32.4669 8.24951H43.4995C43.7951 8.24939 44.0878 8.30752 44.3609 8.42057C44.634 8.53362 44.8821 8.69939 45.0911 8.90839C45.3001 9.11738 45.4659 9.36552 45.5789 9.63861C45.692 9.91171 45.7501 10.2044 45.75 10.5L45.7491 37.5Z" fill="black"/>
<path d="M23.2509 36.7504H24.7509V38.2495H23.2509V36.7504ZM24.0005 16.4999C25.0389 16.4999 26.054 16.192 26.9175 15.6151C27.7809 15.0382 28.4539 14.2181 28.8513 13.2588C29.2486 12.2994 29.3526 11.2437 29.15 10.2252C28.9474 9.20668 28.4474 8.27114 27.7131 7.53685C26.9788 6.80256 26.0433 6.3025 25.0248 6.09991C24.0063 5.89732 22.9506 6.0013 21.9912 6.39869C21.0318 6.79609 20.2118 7.46905 19.6349 8.33249C19.0579 9.19592 18.75 10.211 18.75 11.2495C18.7515 12.6415 19.3051 13.9762 20.2894 14.9605C21.2738 15.9448 22.6084 16.4985 24.0005 16.4999ZM24.0005 7.49995C24.995 7.49995 25.9489 7.89504 26.6521 8.5983C27.3554 9.30156 27.7505 10.2554 27.7505 11.2499C27.7505 12.2445 27.3554 13.1983 26.6521 13.9016C25.9489 14.6049 24.995 14.9999 24.0005 14.9999C23.0059 14.9999 22.0521 14.6049 21.3488 13.9016C20.6455 13.1983 20.2505 12.2445 20.2505 11.2499C20.2505 10.2554 20.6455 9.30156 21.3488 8.5983C22.0521 7.89504 23.0059 7.49995 24.0005 7.49995Z" fill="black"/>
</g>
</g>
</g>
</g>
<defs>
<clipPath id="clip0_4_2750">
<rect width="48" height="48" fill="white"/>
</clipPath>
<clipPath id="clip1_4_2750">
<rect width="48" height="48" fill="white"/>
</clipPath>
<clipPath id="clip2_4_2750">
<rect width="48" height="48" fill="white"/>
</clipPath>
</defs>
</svg>
