<svg width="31" height="39" viewBox="0 0 31 39" fill="none" xmlns="http://www.w3.org/2000/svg">
<path d="M2.45164 23.3367H12.7296L9.04236 37.1619C8.95047 37.4813 9.00112 37.8165 9.18549 38.109C9.36987 38.4015 9.6763 38.6329 10.0514 38.7628C10.2868 38.8481 10.5421 38.8923 10.8003 38.8924C11.077 38.8915 11.3495 38.8378 11.5953 38.7358C11.8411 38.6338 12.0532 38.4865 12.2141 38.3059L30.209 18.6974C30.4786 18.4043 30.6416 18.057 30.6798 17.694C30.718 17.3311 30.63 16.9667 30.4256 16.6415C30.2211 16.3163 29.9082 16.0429 29.5217 15.8518C29.1352 15.6607 28.6901 15.5594 28.2361 15.5591H17.9582L21.6454 1.7339C21.7371 1.41491 21.6868 1.08022 21.503 0.787915C21.3193 0.495608 21.0138 0.264134 20.6396 0.133665C20.27 -0.00625832 19.8509 -0.0374822 19.4555 0.0454558C19.0602 0.128394 18.7137 0.320213 18.4768 0.587356L0.478782 20.1985C0.209483 20.4916 0.0467501 20.8389 0.00866054 21.2017C-0.029429 21.5646 0.058616 21.9289 0.263015 22.254C0.467415 22.5791 0.780166 22.8524 1.16653 23.0436C1.55289 23.2347 1.99773 23.3362 2.45164 23.3367ZM1.77705 20.9671L19.7783 1.35669C19.7907 1.34022 19.8079 1.32646 19.8285 1.31662C19.8491 1.30678 19.8724 1.30118 19.8963 1.3003C19.9243 1.30074 19.9519 1.30605 19.9771 1.31585C19.9954 1.32041 20.0124 1.32786 20.0271 1.33777C20.0418 1.34768 20.0539 1.35985 20.0626 1.37356C20.0713 1.38727 20.0766 1.40225 20.078 1.41761C20.0794 1.43296 20.0769 1.44839 20.0708 1.46298L16.1687 16.0712C16.1434 16.1657 16.1448 16.2637 16.1728 16.3578C16.2008 16.4519 16.2547 16.5397 16.3305 16.6149C16.4064 16.6901 16.5022 16.7508 16.6111 16.7924C16.72 16.834 16.8391 16.8555 16.9596 16.8554H28.2361C28.3915 16.8553 28.5439 16.8898 28.6762 16.9551C28.8086 17.0204 28.9157 17.1139 28.9857 17.2253C29.0557 17.3366 29.0857 17.4613 29.0725 17.5855C29.0592 17.7097 29.0032 17.8285 28.9107 17.9287L10.9102 37.5392C10.901 37.5526 10.8885 37.5645 10.8734 37.5739C10.8583 37.5834 10.8409 37.5903 10.8224 37.5942C10.8038 37.598 10.7845 37.5989 10.7656 37.5965C10.7466 37.5942 10.7285 37.5888 10.7123 37.5806C10.6939 37.5761 10.6769 37.5686 10.6622 37.5587C10.6475 37.5488 10.6355 37.5366 10.6267 37.5229C10.618 37.5092 10.6128 37.4942 10.6114 37.4789C10.61 37.4635 10.6124 37.4481 10.6185 37.4335L14.519 22.8247C14.5443 22.7301 14.5429 22.6322 14.5149 22.5381C14.4869 22.444 14.433 22.3561 14.3572 22.2809C14.2814 22.2057 14.1855 22.1451 14.0766 22.1035C13.9678 22.0618 13.8487 22.0403 13.7281 22.0404H2.45164C2.29624 22.0406 2.14386 22.006 2.0115 21.9407C1.87913 21.8754 1.77199 21.7819 1.70203 21.6706C1.63207 21.5593 1.60203 21.4345 1.61528 21.3103C1.62853 21.1861 1.68454 21.0673 1.77705 20.9671Z" fill="black"/>
</svg>
