<svg width="50" height="70" viewBox="0 0 50 70" fill="none" xmlns="http://www.w3.org/2000/svg">
<g clip-path="url(#clip0_51_758)">
<mask id="mask0_51_758" style="mask-type:luminance" maskUnits="userSpaceOnUse" x="1" y="4" width="48" height="61">
<path d="M1.5 4.77246H48.6418V64.4458H1.5V4.77246Z" fill="white"/>
</mask>
<g mask="url(#mask0_51_758)">
<path d="M41.3255 28.8472C41.2455 21.2498 34.3029 14.7805 25.8491 14.4272C16.508 14.0405 8.81641 20.6938 8.81641 28.9872C8.81641 32.8845 10.5037 36.5472 13.5699 39.3005C16.124 41.5938 17.6295 44.4498 17.9 47.4205C17.4666 47.6205 17.103 47.9245 16.8484 48.2978C16.5939 48.6712 16.4571 49.0992 16.4557 49.5378V49.6138H15.2513C14.9168 49.6138 14.5968 49.7338 14.3582 49.9458C14.2421 50.0501 14.1499 50.1746 14.0869 50.312C14.0239 50.4493 13.9915 50.5968 13.9915 50.7458C13.9915 50.8948 14.0239 51.0423 14.0869 51.1797C14.1499 51.3171 14.2421 51.4416 14.3582 51.5458C14.5953 51.7592 14.9168 51.8792 15.2513 51.8792H16.4557V52.7525H15.2513C14.9168 52.7525 14.5968 52.8725 14.3582 53.0858C14.2421 53.1901 14.1499 53.3146 14.0869 53.452C14.0239 53.5893 13.9915 53.7368 13.9915 53.8858C13.9915 54.0348 14.0239 54.1823 14.0869 54.3197C14.1499 54.4571 14.2421 54.5816 14.3582 54.6858C14.5976 54.8984 14.918 55.0171 15.2513 55.0165H16.4557V55.0938C16.4557 55.7298 16.7379 56.3392 17.2397 56.7885C17.7454 57.2397 18.4234 57.4918 19.1291 57.4912H19.164C19.455 58.7045 20.1982 59.7912 21.2731 60.5712C22.3552 61.3532 23.693 61.7786 25.0709 61.7786C26.4489 61.7786 27.7867 61.3532 28.8688 60.5712C29.9385 59.7984 30.6836 58.7102 30.9779 57.4912H31.0026C31.711 57.4912 32.3902 57.2378 32.892 56.7885C33.1391 56.5683 33.3357 56.3051 33.4703 56.0143C33.6049 55.7235 33.6749 55.411 33.676 55.0952V55.0178H34.8804C35.2149 55.0178 35.535 54.8978 35.772 54.6845C35.8881 54.5802 35.9804 54.4558 36.0434 54.3184C36.1063 54.181 36.1388 54.0335 36.1388 53.8845C36.1388 53.7355 36.1063 53.588 36.0434 53.4506C35.9804 53.3133 35.8881 53.1888 35.772 53.0845C35.5334 52.8715 35.2135 52.7524 34.8804 52.7525H33.676V51.8778H34.8804C35.2149 51.8778 35.535 51.7578 35.772 51.5458C35.8881 51.4416 35.9804 51.3171 36.0434 51.1797C36.1063 51.0423 36.1388 50.8948 36.1388 50.7458C36.1388 50.5968 36.1063 50.4493 36.0434 50.312C35.9804 50.1746 35.8881 50.0501 35.772 49.9458C35.5334 49.7328 35.2135 49.6137 34.8804 49.6138H33.676V49.5365C33.6721 49.0957 33.535 48.6646 33.2801 48.2909C33.0251 47.9171 32.6622 47.6154 32.2317 47.4192C32.4993 44.4432 34.0004 41.5925 36.5444 39.3165C38.0792 37.955 39.2965 36.322 40.1226 34.5165C40.9425 32.7221 41.3529 30.7924 41.3255 28.8472ZM25.0709 59.5138C24.3655 59.5167 23.6754 59.3255 23.0899 58.9649C22.5044 58.6043 22.0503 58.0909 21.7866 57.4912H28.3553C28.0993 58.0872 27.6484 58.5978 27.0622 58.9605C26.4727 59.3224 25.779 59.5155 25.0695 59.5152L25.0709 59.5138ZM31.1509 55.0938C31.1509 55.1298 31.1364 55.1632 31.1073 55.1872C31.0794 55.2125 31.0418 55.2268 31.0026 55.2272H19.1291C19.0904 55.2265 19.0534 55.2121 19.0259 55.1872C18.9985 55.1626 18.9828 55.129 18.9822 55.0938V49.5352C18.9822 49.4632 19.0491 49.4032 19.1291 49.4032H31.0055C31.0869 49.4032 31.1539 49.4632 31.1539 49.5365V55.0965L31.1509 55.0938ZM29.7095 47.1392H20.4222C20.0819 43.6685 18.3102 40.3525 15.3575 37.6992C14.084 36.5632 13.0707 35.2055 12.3771 33.7058C11.6885 32.2135 11.3363 30.6089 11.3415 28.9885C11.3415 21.9378 17.8971 16.3578 25.7313 16.6898C32.8702 16.9898 38.7335 22.4525 38.8004 28.8685C38.8229 30.5124 38.4768 32.1429 37.7837 33.6592C37.0863 35.1846 36.0586 36.5644 34.7626 37.7152C31.8142 40.3512 30.0484 43.6605 29.7095 47.1392Z" fill="#01183A"/>
<path d="M33.34 24.3847C33.2134 24.2171 33.0511 24.0746 32.8629 23.966L25.6876 20.3727C25.4986 20.2784 25.2868 20.229 25.0716 20.229C24.8564 20.229 24.6446 20.2784 24.4556 20.3727L17.2789 23.9634C17.148 24.0647 16.9691 24.1287 16.8032 24.3834C16.6915 24.5552 16.6323 24.7513 16.6316 24.9514V33.0794C16.6316 33.2807 16.6912 33.4794 16.8061 33.6527C16.9196 33.826 17.0825 33.97 17.2789 34.0687L24.4556 37.6594C24.645 37.7521 24.8562 37.801 25.0709 37.802C25.3414 37.802 25.4665 37.742 25.7109 37.6474L32.8629 34.0687C33.0578 33.9714 33.2209 33.8282 33.3356 33.654C33.4494 33.481 33.5097 33.2828 33.5101 33.0807V24.9527C33.51 24.7524 33.4512 24.5571 33.34 24.3847ZM23.8083 34.7447L19.1567 32.4167V26.8794L23.8083 29.2074V34.7447ZM25.0709 27.246L20.4861 24.9527L25.0709 22.658L29.6556 24.9514L25.0709 27.246ZM30.9851 32.4167L26.3334 34.7447V29.2087L30.9851 26.882V32.4167ZM26.3334 10.9567V8.57136C26.3331 8.42218 26.3002 8.27457 26.2368 8.13719C26.1733 7.99981 26.0806 7.87543 25.964 7.77136C25.7253 7.55734 25.4047 7.4375 25.0709 7.4375C24.737 7.4375 24.4164 7.55734 24.1778 7.77136C24.0612 7.87543 23.9684 7.99981 23.905 8.13719C23.8415 8.27457 23.8087 8.42218 23.8083 8.57136V10.9567C23.8087 11.1059 23.8415 11.2535 23.905 11.3909C23.9684 11.5282 24.0612 11.6526 24.1778 11.7567C24.4164 11.9707 24.737 12.0906 25.0709 12.0906C25.4047 12.0906 25.7253 11.9707 25.964 11.7567C26.0806 11.6526 26.1733 11.5282 26.2368 11.3909C26.3002 11.2535 26.3331 11.1059 26.3334 10.9567ZM35.9901 13.8834L37.3196 11.8167C37.4028 11.6879 37.4569 11.545 37.4786 11.3966C37.5003 11.2483 37.4891 11.0974 37.4458 10.9531C37.4025 10.8087 37.328 10.6738 37.2265 10.5565C37.1251 10.4391 36.999 10.3417 36.8556 10.27C36.5655 10.1211 36.2236 10.0812 35.9021 10.1588C35.5806 10.2364 35.3045 10.4255 35.132 10.686L33.804 12.7527C33.7165 12.8814 33.6585 13.0251 33.6336 13.1751C33.6088 13.325 33.6175 13.478 33.6593 13.6247C33.7011 13.7715 33.7751 13.9089 33.8767 14.0285C33.9784 14.1482 34.1055 14.2476 34.2505 14.3207C34.5448 14.4727 34.8927 14.512 35.2185 14.4301C35.5443 14.3482 35.8216 14.1517 35.9901 13.8834ZM42.7189 20.7487L45.0229 19.5554C45.312 19.4068 45.5254 19.1595 45.6163 18.8674C45.6602 18.7233 45.6717 18.5726 45.6502 18.4243C45.6287 18.276 45.5746 18.1333 45.4912 18.0047C45.4074 17.8742 45.2961 17.7602 45.1638 17.6696C45.0314 17.5789 44.8806 17.5133 44.7203 17.4767C44.3959 17.4 44.0516 17.4421 43.7603 17.594L41.4563 18.786C41.1689 18.9355 40.9573 19.1826 40.8672 19.474C40.8245 19.6176 40.8137 19.7676 40.8354 19.9151C40.8571 20.0626 40.911 20.2046 40.9938 20.3327C41.166 20.5939 41.4425 20.7833 41.7646 20.8608C42.0867 20.9382 42.429 20.8975 42.7189 20.7474V20.7487ZM44.7189 29.7087H47.3807C47.7152 29.7087 48.0352 29.59 48.2723 29.378C48.3884 29.2737 48.4807 29.1493 48.5436 29.0119C48.6066 28.8745 48.6391 28.727 48.6391 28.578C48.6391 28.429 48.6066 28.2815 48.5436 28.1441C48.4807 28.0068 48.3884 27.8823 48.2723 27.778C48.0336 27.5642 47.713 27.4446 47.3792 27.4447H44.7189C44.3843 27.4447 44.0643 27.5647 43.8272 27.778C43.7111 27.8823 43.6189 28.0068 43.5559 28.1441C43.493 28.2815 43.4605 28.429 43.4605 28.578C43.4605 28.727 43.493 28.8745 43.5559 29.0119C43.6189 29.1493 43.7111 29.2737 43.8272 29.378C44.0629 29.5914 44.3843 29.7087 44.7189 29.7087ZM15.8781 14.2994C16.1653 14.1504 16.377 13.9037 16.4672 13.6127C16.5104 13.4689 16.5215 13.3186 16.4998 13.1708C16.478 13.0231 16.4239 12.8808 16.3407 12.7527L15.0112 10.6874C14.9284 10.5561 14.8177 10.4413 14.6859 10.3497C14.554 10.2582 14.4035 10.1916 14.2432 10.154C13.9195 10.0758 13.5753 10.1159 13.2832 10.266C12.9942 10.4159 12.7818 10.6648 12.6927 10.958C12.65 11.1023 12.6396 11.2529 12.6621 11.401C12.6846 11.549 12.7395 11.6913 12.8236 11.8194L14.1545 13.8834C14.3267 14.1446 14.6032 14.334 14.9253 14.4114C15.2474 14.4888 15.5897 14.4482 15.8796 14.298L15.8781 14.2994ZM9.14797 20.3354C9.23105 20.2066 9.28504 20.0638 9.30673 19.9155C9.32842 19.7672 9.31736 19.6165 9.27421 19.4722C9.23106 19.3279 9.1567 19.193 9.05555 19.0756C8.9544 18.9582 8.82853 18.8606 8.68542 18.7887L6.38142 17.5954C6.0915 17.4432 5.74819 17.401 5.42478 17.4777C5.10137 17.5545 4.82351 17.7441 4.65051 18.006C4.56674 18.1352 4.51235 18.2786 4.49059 18.4276C4.46884 18.5766 4.48018 18.7281 4.52393 18.8729C4.56769 19.0178 4.64295 19.153 4.74519 19.2705C4.84743 19.388 4.97454 19.4854 5.11887 19.5567L7.42287 20.75C7.71378 20.8994 8.05851 20.9407 8.38142 20.862C8.7027 20.786 8.97821 20.5967 9.14797 20.3354ZM2.76251 27.4474C2.4292 27.4468 2.1088 27.5654 1.86942 27.778C1.75309 27.8823 1.66066 28.0069 1.59756 28.1444C1.53446 28.2819 1.50195 28.4295 1.50195 28.5787C1.50195 28.7279 1.53446 28.8755 1.59756 29.013C1.66066 29.1505 1.75309 29.2751 1.86942 29.3794C2.10651 29.5927 2.42797 29.7114 2.76251 29.7114H5.42287C5.75742 29.7114 6.07742 29.5914 6.31451 29.3794C6.43062 29.2751 6.52286 29.1506 6.58583 29.0132C6.6488 28.8759 6.68123 28.7284 6.68123 28.5794C6.68123 28.4304 6.6488 28.2829 6.58583 28.1455C6.52286 28.0081 6.43062 27.8836 6.31451 27.7794C6.07613 27.5659 5.75615 27.4462 5.42287 27.446H2.76106L2.76251 27.4474Z" fill="#01183A"/>
</g>
</g>
<defs>
<clipPath id="clip0_51_758">
<rect width="48" height="60" fill="white" transform="translate(1.5 4.77246)"/>
</clipPath>
</defs>
</svg>
