<svg width="54" height="72" viewBox="0 0 54 72" fill="none" xmlns="http://www.w3.org/2000/svg">
<mask id="mask0_51_774" style="mask-type:luminance" maskUnits="userSpaceOnUse" x="3" y="11" width="48" height="48">
<path d="M3.27246 11.4541H50.727V58.9086H3.27246V11.4541Z" fill="white"/>
</mask>
<g mask="url(#mask0_51_774)">
<path d="M44.7512 47.1334C43.6497 42.8508 41.0037 39.1266 37.3222 36.6771H48.2596C48.653 36.6771 49.0303 36.5208 49.3085 36.2426C49.5867 35.9644 49.743 35.5871 49.743 35.1937C49.743 34.8003 49.5867 34.423 49.3085 34.1448C49.0303 33.8666 48.653 33.7103 48.2596 33.7103H33.246C32.9196 32.434 32.1776 31.3026 31.137 30.4946C30.0964 29.6866 28.8165 29.248 27.4991 29.248C26.1816 29.248 24.9017 29.6866 23.8611 30.4946C22.8205 31.3026 22.0785 32.434 21.7521 33.7103H6.73688C6.34368 33.7103 5.96659 33.8665 5.68856 34.1446C5.41053 34.4226 5.25433 34.7997 5.25433 35.1929C5.25433 35.5861 5.41053 35.9632 5.68856 36.2412C5.96659 36.5192 6.34368 36.6754 6.73688 36.6754H17.6743C13.9927 39.125 11.3468 42.8492 10.2452 47.1318C8.82144 47.3592 7.52921 48.0974 6.61018 49.2084C5.69115 50.3194 5.20823 51.7271 5.25173 53.1683C5.29522 54.6095 5.86215 55.9855 6.84651 57.0391C7.83087 58.0926 9.16526 58.7516 10.6002 58.8927C12.0351 59.0338 13.4723 58.6475 14.6431 57.8059C15.8138 56.9644 16.638 55.7252 16.9615 54.3201C17.2849 52.915 17.0855 51.4402 16.4006 50.1714C15.7156 48.9027 14.592 47.9268 13.2398 47.4263C13.8768 45.2313 15.0089 43.2116 16.5491 41.5228C18.0892 39.834 19.9963 38.521 22.1236 37.6851C22.5991 38.7118 23.3584 39.5811 24.3119 40.1903C25.2654 40.7996 26.3733 41.1233 27.5048 41.1233C28.6363 41.1233 29.7442 40.7996 30.6977 40.1903C31.6512 39.5811 32.4105 38.7118 32.886 37.6851C35.011 38.5229 36.9156 39.8368 38.4534 41.5258C39.9912 43.2148 41.1213 45.2339 41.7567 47.428C40.4044 47.9269 39.28 48.9013 38.594 50.169C37.9079 51.4366 37.707 52.9108 38.0289 54.3158C38.3507 55.7209 39.1733 56.9606 40.3428 57.8031C41.5124 58.6457 42.9487 59.0335 44.3834 58.8939C45.8181 58.7544 47.1528 58.0971 48.138 57.0449C49.1232 55.9927 49.6915 54.6178 49.7366 53.177C49.7817 51.7363 49.3004 50.3285 48.3829 49.2168C47.4654 48.1051 46.1744 47.3657 44.7512 47.1367V47.1334ZM14.1512 52.9883C14.1605 53.3837 14.0907 53.7769 13.9458 54.1449C13.8009 54.5128 13.5839 54.8481 13.3076 55.131C13.0313 55.4139 12.7012 55.6387 12.3367 55.7922C11.9723 55.9457 11.5808 56.0247 11.1853 56.0247C10.7899 56.0247 10.3984 55.9457 10.0339 55.7922C9.66948 55.6387 9.33938 55.4139 9.06305 55.131C8.78672 54.8481 8.56974 54.5128 8.42486 54.1449C8.27998 53.7769 8.21013 53.3837 8.21942 52.9883C8.21942 52.2015 8.53199 51.4469 9.08836 50.8905C9.64472 50.3342 10.3993 50.0216 11.1861 50.0216C11.973 50.0216 12.7276 50.3342 13.2839 50.8905C13.8403 51.4469 14.1529 52.2015 14.1529 52.9883H14.1512ZM27.4991 38.1596C26.7125 38.1596 25.9581 37.8471 25.4018 37.2909C24.8456 36.7347 24.5331 35.9803 24.5331 35.1937C24.5331 34.4071 24.8456 33.6527 25.4018 33.0965C25.9581 32.5403 26.7125 32.2278 27.4991 32.2278C28.2857 32.2278 29.0401 32.5403 29.5963 33.0965C30.1525 33.6527 30.465 34.4071 30.465 35.1937C30.465 35.9803 30.1525 36.7347 29.5963 37.2909C29.0401 37.8471 28.2857 38.1596 27.4991 38.1596ZM43.812 55.9551C43.0254 55.9551 42.271 55.6426 41.7148 55.0864C41.1585 54.5302 40.8461 53.7758 40.8461 52.9892C40.8461 52.2026 41.1585 51.4482 41.7148 50.8919C42.271 50.3357 43.0254 50.0232 43.812 50.0232C44.5986 50.0232 45.353 50.3357 45.9092 50.8919C46.4654 51.4482 46.7779 52.2026 46.7779 52.9892C46.7779 53.7758 46.4654 54.5302 45.9092 55.0864C45.353 55.6426 44.5986 55.9551 43.812 55.9551Z" fill="black"/>
</g>
</svg>
